<svg xmlns="http://www.w3.org/2000/svg" width="283" height="71" viewBox="0 0 283 71" fill="none"><path d="M54.5967 7.03137H0.0322266V64.0372H54.5967V7.03137Z" fill="#FF7900"></path><path fill-rule="evenodd" clip-rule="evenodd" d="M18.6473 56.9372C18.6473 57.4517 18.9428 57.8976 19.5009 57.8976C20.1575 57.8976 20.7813 57.6575 21.3723 57.0744C21.3723 55.2223 21.3723 55.2223 21.3723 55.2223C19.5009 55.4281 18.6473 55.9426 18.6473 56.9372ZM21.4379 58.5493C20.65 59.0638 19.7964 59.3039 18.9428 59.3039C17.4983 59.3039 16.7432 58.3435 16.7432 57.0744C16.7432 55.2909 18.2534 54.3305 21.4708 53.9532C21.4708 53.5759 21.4708 53.5759 21.4708 53.5759C21.4708 52.9928 21.044 52.6155 20.256 52.6155C19.5338 52.6155 18.91 52.9928 18.4832 53.5759C17.1371 52.7527 17.1371 52.7527 17.1371 52.7527C17.8594 51.7237 18.91 51.1749 20.3545 51.1749C22.2915 51.1749 23.4406 52.0667 23.4406 53.5759V59.2353C21.6678 59.2353 21.6678 59.2353 21.6678 59.2353L21.4379 58.5493Z" fill="white"></path><path fill-rule="evenodd" clip-rule="evenodd" d="M24.918 51.5522C26.5923 51.3121 26.5923 51.3121 26.5923 51.3121C26.7237 52.3068 26.7237 52.3068 26.7237 52.3068C27.6757 51.5522 28.398 51.1749 29.3173 51.1749C30.8931 51.1749 31.7139 52.0667 31.7139 53.7474C31.7139 59.3039 31.7139 59.3039 31.7139 59.3039C29.6784 59.3039 29.6784 59.3039 29.6784 59.3039C29.6784 54.1247 29.6784 54.1247 29.6784 54.1247C29.6784 53.13 29.4486 52.787 28.7263 52.787C28.1354 52.787 27.5116 53.0271 26.855 53.6102C26.855 59.3382 26.855 59.3382 26.855 59.3382C24.918 59.3382 24.918 59.3382 24.918 59.3382V51.5522Z" fill="white"></path><path fill-rule="evenodd" clip-rule="evenodd" d="M46.4879 54.2619C46.4879 53.1986 45.897 52.6155 44.9777 52.6155C44.1241 52.6155 43.5332 53.2329 43.4675 54.2619H46.4879ZM45.0762 59.4411C42.8437 59.4411 41.4648 57.9319 41.4648 55.2909C41.4648 52.6498 42.8437 51.1406 45.0106 51.1406C47.243 51.1406 48.5563 52.6498 48.5563 55.188C48.5563 55.3252 48.4906 55.4281 48.4906 55.5653C43.4347 55.5653 43.4347 55.5653 43.4347 55.5653C43.5003 57.0744 44.0913 57.829 45.2404 57.829C46.0283 57.829 46.5536 57.5203 46.9804 56.8686C48.4249 57.6918 48.4249 57.6918 48.4249 57.6918C47.7355 58.858 46.5864 59.4411 45.0762 59.4411Z" fill="white"></path><path fill-rule="evenodd" clip-rule="evenodd" d="M6.7632 52.8899C5.25299 52.8899 5.02318 54.2962 5.02318 55.2909C5.02318 56.3199 5.25299 57.6918 6.7632 57.6918C8.27341 57.6918 8.56888 56.3542 8.56888 55.2909C8.56888 54.3305 8.27341 52.8899 6.7632 52.8899ZM6.7632 59.4411C4.82619 59.4411 3.02051 58.1034 3.02051 55.2566C3.02051 52.4097 4.82619 51.1749 6.7632 51.1749C8.70021 51.1749 10.5059 52.444 10.5059 55.2566C10.5059 58.1034 8.70021 59.4411 6.7632 59.4411Z" fill="white"></path><path fill-rule="evenodd" clip-rule="evenodd" d="M11.918 51.415C13.7893 51.415 13.7893 51.415 13.7893 51.415C13.7893 52.3068 13.7893 52.3068 13.7893 52.3068C14.1505 51.7923 15.0697 51.1749 15.8576 51.1749C15.989 51.1749 16.0875 51.1749 16.1531 51.2435C16.1531 53.1986 16.1531 53.1986 16.1531 53.1986H16.0875C15.2339 53.1986 14.2161 53.2672 13.9206 54.0218C13.9206 59.2696 13.9206 59.2696 13.9206 59.2696C11.918 59.2696 11.918 59.2696 11.918 59.2696V51.415Z" fill="white"></path><path fill-rule="evenodd" clip-rule="evenodd" d="M40.1852 51.3464C40.1852 58.8923 40.1852 58.8923 40.1852 58.8923C40.1852 60.1614 40.1195 62.3566 36.5081 62.4252C34.9979 62.4252 33.619 61.8078 33.3236 60.4701C35.2606 60.0928 35.2606 60.0928 35.2606 60.0928C35.3919 60.4701 35.6217 60.8474 36.7051 60.8474C37.7885 60.8474 38.281 60.4015 38.281 59.0981C38.281 58.2063 38.281 58.2063 38.281 58.2063C38.2153 58.1377 38.2153 58.1377 38.2153 58.1377C37.9199 58.7551 37.4274 59.3382 36.2783 59.3382C34.4726 59.3382 33.0938 58.0691 33.0938 55.3595C33.0938 52.7184 34.5383 51.2092 36.1142 51.2092C37.6244 51.2092 38.2153 51.9638 38.3467 52.3411C38.478 51.3464 38.478 51.3464 38.478 51.3464H40.1852ZM36.6395 57.5889C38.1497 57.5889 38.3138 56.0112 38.3138 54.9479C38.3138 53.6788 37.7229 52.6841 36.6395 52.6841C35.9172 52.6841 35.1292 53.1986 35.1292 55.0165C35.1292 56.0112 35.1949 57.5889 36.6395 57.5889Z" fill="white"></path><path fill-rule="evenodd" clip-rule="evenodd" d="M52.4961 50.9005H52.0693V48.671L51.347 50.9005H51.0515L50.1979 48.671H50.0666V50.9005H49.7711V48.3623H50.3292L51.1828 50.2831L51.9051 48.3623H52.4632V50.9005H52.4961ZM49.2458 48.671H48.5236V50.9005H48.0968V48.671H47.2432V48.3623H49.213V48.671H49.2458Z" fill="white"></path><path d="M102.924 29.7034C101.25 31.487 98.8531 32.4131 95.7013 32.4131C92.5496 32.4131 90.1201 31.5213 88.4786 29.7034C86.2461 27.5082 85.1299 24.3184 85.1299 20.1681C85.1299 15.9493 86.2461 12.7594 88.4786 10.6329C90.153 8.8493 92.5496 7.92322 95.7013 7.92322C98.8531 7.92322 101.283 8.81501 102.924 10.6329C105.157 12.7594 106.273 15.915 106.273 20.1681C106.273 24.3184 105.157 27.5082 102.924 29.7034ZM100.035 26.2049C101.118 24.7986 101.644 22.7749 101.644 20.2024C101.644 17.63 101.118 15.6063 100.035 14.2C98.9516 12.7937 97.507 12.0735 95.6685 12.0735C93.83 12.0735 92.3855 12.7937 91.302 14.2C90.2186 15.6063 89.6605 17.63 89.6605 20.2024C89.6605 22.7749 90.2186 24.7986 91.302 26.2049C92.3855 27.6111 93.8628 28.3314 95.6685 28.3314C97.507 28.3314 98.9844 27.6111 100.035 26.2049Z" fill="#FF7900"></path><path d="M118.519 14.303C118.584 14.303 118.683 14.303 118.88 14.3373V18.8991C118.617 18.8648 118.354 18.8305 118.157 18.8305C117.96 18.8305 117.763 18.8305 117.632 18.8305C115.925 18.8305 114.743 19.4136 114.185 20.5798C113.857 21.2315 113.692 22.2605 113.692 23.6324V31.7957H109.392V14.6803H113.463V17.6643C114.119 16.5324 114.71 15.7436 115.17 15.332C115.958 14.646 117.008 14.2687 118.289 14.2687C118.387 14.303 118.453 14.303 118.519 14.303Z" fill="#FF7900"></path><path d="M127.875 21.3687C128.663 21.2658 129.254 21.1286 129.582 20.9914C130.206 20.717 130.501 20.3054 130.501 19.7223C130.501 19.0363 130.272 18.5561 129.779 18.2817C129.319 18.0073 128.63 17.8701 127.711 17.8701C126.693 17.8701 125.971 18.1445 125.544 18.659C125.248 19.0363 125.051 19.5508 124.92 20.2368H120.816C120.915 18.7276 121.309 17.5271 122.031 16.5667C123.18 15.0576 125.117 14.303 127.875 14.303C129.681 14.303 131.256 14.6803 132.668 15.4006C134.047 16.1552 134.769 17.5271 134.769 19.5851V27.4397C134.769 27.9885 134.769 28.6402 134.802 29.4291C134.835 30.0122 134.901 30.4238 135.065 30.6296C135.196 30.8353 135.426 31.0068 135.689 31.144V31.7957H130.994C130.862 31.4527 130.764 31.144 130.731 30.8353C130.665 30.5267 130.633 30.1837 130.6 29.8064C130.009 30.4581 129.319 31.0411 128.564 31.5213C127.645 32.0701 126.594 32.3445 125.413 32.3445C123.935 32.3445 122.688 31.8986 121.736 31.0068C120.783 30.1151 120.291 28.8803 120.291 27.2682C120.291 25.1759 121.079 23.6667 122.622 22.7064C123.476 22.1919 124.723 21.8146 126.398 21.6088L127.875 21.3687ZM130.469 23.461C130.206 23.6324 129.91 23.7696 129.648 23.9068C129.385 24.0097 128.991 24.1126 128.499 24.2155L127.514 24.387C126.594 24.5585 125.938 24.7643 125.544 25.0044C124.887 25.416 124.526 26.0334 124.526 26.8909C124.526 27.6455 124.723 28.1943 125.15 28.5373C125.577 28.8803 126.069 29.0518 126.66 29.0518C127.579 29.0518 128.466 28.7774 129.254 28.1943C130.042 27.6455 130.436 26.6165 130.469 25.1073V23.461Z" fill="#FF7900"></path><path d="M151.645 15.675C152.728 16.601 153.254 18.1445 153.254 20.2711V31.7614H148.887V21.3687C148.887 20.4769 148.789 19.7909 148.559 19.3107C148.132 18.4189 147.344 18.0073 146.162 18.0073C144.718 18.0073 143.733 18.659 143.207 19.9281C142.945 20.6141 142.781 21.4716 142.781 22.5349V31.7614H138.513V14.7146H142.649V17.2184C143.207 16.3266 143.7 15.7093 144.192 15.332C145.079 14.646 146.162 14.303 147.508 14.303C149.183 14.303 150.562 14.7489 151.645 15.675Z" fill="#FF7900"></path><path d="M165.302 14.6802C166.352 15.1261 167.173 15.9493 167.83 17.1497V14.6802H171.999V30.8695C171.999 33.0647 171.638 34.7454 170.949 35.843C169.734 37.7637 167.403 38.7241 163.923 38.7241C161.822 38.7241 160.147 38.3125 158.801 37.455C157.488 36.5976 156.766 35.3285 156.602 33.6135H161.264C161.395 34.128 161.592 34.5053 161.855 34.7454C162.314 35.157 163.102 35.3628 164.186 35.3628C165.729 35.3628 166.746 34.814 167.272 33.7507C167.6 33.0647 167.797 31.8985 167.797 30.2865V29.1889C167.403 29.9092 166.943 30.458 166.484 30.8352C165.63 31.5212 164.514 31.8642 163.168 31.8642C161.067 31.8642 159.392 31.1096 158.145 29.5662C156.897 28.0227 156.273 25.9304 156.273 23.3236C156.273 20.7855 156.864 18.6589 158.079 16.9439C159.294 15.229 161.001 14.3372 163.201 14.3372C163.956 14.3029 164.678 14.4058 165.302 14.6802ZM166.746 26.9251C167.436 26.1362 167.764 24.8671 167.764 23.1522C167.764 21.5401 167.436 20.3053 166.779 19.4478C166.123 18.5903 165.269 18.1787 164.153 18.1787C162.675 18.1787 161.625 18.899 161.067 20.3739C160.771 21.1628 160.607 22.1232 160.607 23.2551C160.607 24.2497 160.771 25.1415 161.1 25.8961C161.69 27.3367 162.708 28.057 164.218 28.057C165.236 28.0913 166.057 27.714 166.746 26.9251Z" fill="#FF7900"></path><path d="M186.609 15.0232C187.758 15.572 188.678 16.3951 189.433 17.5613C190.089 18.5903 190.549 19.7565 190.746 21.0942C190.844 21.8831 190.91 23.015 190.877 24.4898H178.993C179.058 26.2048 179.616 27.4053 180.7 28.0913C181.356 28.5029 182.144 28.743 183.064 28.743C184.048 28.743 184.836 28.4686 185.427 27.9541C185.756 27.6797 186.051 27.2681 186.314 26.7879H190.68C190.582 27.8169 190.024 28.8459 189.104 29.8749C187.627 31.5212 185.592 32.3787 182.965 32.3787C180.798 32.3787 178.861 31.6927 177.22 30.2865C175.545 28.8802 174.725 26.6164 174.725 23.4608C174.725 20.5111 175.48 18.2473 176.99 16.6695C178.5 15.0918 180.437 14.3029 182.834 14.3029C184.18 14.2343 185.46 14.5087 186.609 15.0232ZM180.207 18.899C179.616 19.5507 179.222 20.4425 179.058 21.5401H186.412C186.347 20.3396 185.953 19.4478 185.263 18.8304C184.574 18.213 183.753 17.9043 182.735 17.9043C181.685 17.9043 180.831 18.2473 180.207 18.899Z" fill="#FF7900"></path><path d="M98.8532 41.2623C100.396 41.8111 101.644 42.7715 102.629 44.1778C103.384 45.3096 103.909 46.5787 104.205 47.9164C104.5 49.2541 104.631 50.5232 104.631 51.7236C104.631 54.7763 104.04 57.3831 102.859 59.5096C101.25 62.3908 98.7876 63.8314 95.4389 63.8314H85.918V40.7478H95.4389C96.8177 40.7821 97.9668 40.9193 98.8532 41.2623ZM90.3829 44.7608V59.8183H94.6509C96.8177 59.8183 98.3608 58.6864 99.2144 56.457C99.674 55.2222 99.9038 53.7473 99.9038 52.0666C99.9038 49.7343 99.5427 47.9164 98.8532 46.6473C98.1638 45.3782 96.7521 44.7608 94.6509 44.7608H90.3829Z" fill="white"></path><path d="M112.117 44.7265H107.783V40.6106H112.117V44.7265ZM107.783 46.7502H112.117V63.8314H107.783V46.7502Z" fill="white"></path><path d="M124.362 46.7502C125.413 47.1961 126.234 48.0193 126.89 49.2198V46.7502H131.06V62.9396C131.06 65.1348 130.699 66.8155 130.009 67.913C128.795 69.8338 126.464 70.7942 122.984 70.7942C120.882 70.7942 119.208 70.3826 117.862 69.5251C116.549 68.6676 115.826 67.3986 115.662 65.6836H120.324C120.456 66.1981 120.653 66.5754 120.915 66.8155C121.375 67.2271 122.163 67.4329 123.246 67.4329C124.789 67.4329 125.807 66.8841 126.332 65.8208C126.661 65.1348 126.858 63.9686 126.858 62.3565V61.2589C126.464 61.9792 126.004 62.528 125.544 62.9053C124.691 63.5913 123.574 63.9343 122.228 63.9343C120.127 63.9343 118.453 63.1797 117.205 61.6362C115.958 60.0928 115.334 58.0005 115.334 55.3937C115.334 52.8556 115.925 50.729 117.14 49.014C118.354 47.299 120.062 46.4073 122.261 46.4073C123.016 46.3387 123.739 46.4759 124.362 46.7502ZM125.807 58.9952C126.496 58.2063 126.825 56.9372 126.825 55.2222C126.825 53.6101 126.496 52.3754 125.84 51.5179C125.183 50.6604 124.33 50.2488 123.213 50.2488C121.736 50.2488 120.685 50.9691 120.127 52.444C119.832 53.2329 119.668 54.1932 119.668 55.3251C119.668 56.3198 119.832 57.2116 120.16 57.9662C120.751 59.4068 121.769 60.1271 123.279 60.1271C124.264 60.1614 125.118 59.7841 125.807 58.9952Z" fill="white"></path><path d="M139.399 44.7265H135.065V40.6106H139.399V44.7265ZM135.065 46.7502H139.399V63.8314H135.065V46.7502Z" fill="white"></path><path d="M141.861 50.1115V46.9217H144.127V42.1541H148.362V46.9217H151.021V50.1115H148.362V59.1323C148.362 59.8183 148.46 60.2642 148.624 60.4357C148.789 60.6072 149.314 60.7101 150.167 60.7101C150.299 60.7101 150.43 60.7101 150.594 60.7101C150.726 60.7101 150.89 60.7101 151.021 60.6758V64.0028L148.986 64.0714C146.983 64.14 145.604 63.7628 144.849 62.9739C144.356 62.4594 144.127 61.6705 144.127 60.6072V50.1115H141.861Z" fill="white"></path><path d="M160.247 53.4386C161.035 53.3357 161.626 53.1985 161.954 53.0613C162.578 52.7869 162.873 52.3753 162.873 51.7923C162.873 51.1063 162.644 50.6261 162.151 50.3517C161.692 50.0773 161.002 49.9401 160.083 49.9401C159.065 49.9401 158.343 50.2145 157.916 50.729C157.621 51.1063 157.424 51.6208 157.292 52.3067H153.156C153.254 50.7976 153.648 49.5971 154.37 48.6367C155.519 47.1275 157.456 46.3729 160.214 46.3729C162.02 46.3729 163.596 46.7502 165.007 47.4705C166.386 48.2251 167.109 49.5971 167.109 51.6551V59.4753C167.109 60.0241 167.109 60.6758 167.141 61.4647C167.174 62.0478 167.24 62.4594 167.404 62.6652C167.535 62.871 167.765 63.0425 168.028 63.1797V63.8314H163.366C163.235 63.4884 163.136 63.1797 163.103 62.871C163.038 62.5623 163.005 62.2193 162.972 61.842C162.381 62.4937 161.692 63.0768 160.936 63.557C160.017 64.1058 158.967 64.3802 157.785 64.3802C156.307 64.3802 155.06 63.9343 154.108 63.0425C153.156 62.1507 152.663 60.9159 152.663 59.3038C152.663 57.2116 153.451 55.7024 154.994 54.742C155.848 54.2275 157.095 53.8502 158.77 53.6444L160.247 53.4386ZM162.841 55.5309C162.578 55.7024 162.282 55.8396 162.02 55.9768C161.757 56.0797 161.363 56.1826 160.871 56.2855L159.886 56.457C158.967 56.6285 158.31 56.8343 157.916 57.0744C157.259 57.486 156.898 58.1034 156.898 58.9608C156.898 59.7154 157.095 60.2642 157.522 60.6072C157.949 60.9502 158.441 61.1217 159.032 61.1217C159.951 61.1217 160.838 60.8473 161.626 60.2642C162.414 59.7154 162.808 58.6865 162.841 57.1773V55.5309Z" fill="white"></path><path d="M175.184 63.8314H170.916V40.7478H175.184V63.8314Z" fill="white"></path><path d="M190.352 43.1487C192.125 41.2623 194.391 40.3019 197.148 40.3019C200.825 40.3019 203.518 41.571 205.225 44.1091C206.177 45.5497 206.669 46.9903 206.735 48.4309H202.106C201.81 47.3333 201.449 46.4758 200.99 45.927C200.169 44.9323 198.954 44.4178 197.345 44.4178C195.704 44.4178 194.391 45.1381 193.439 46.5444C192.486 47.9507 192.027 49.9743 192.027 52.5468C192.027 55.1193 192.519 57.0743 193.537 58.3777C194.555 59.6811 195.802 60.2985 197.345 60.2985C198.921 60.2985 200.136 59.7497 200.957 58.6521C201.416 58.069 201.81 57.1772 202.106 55.9768H206.702C206.308 58.4806 205.29 60.5386 203.682 62.1164C202.04 63.6942 199.972 64.483 197.444 64.483C194.292 64.483 191.83 63.4198 190.024 61.2932C188.218 59.1666 187.332 56.2169 187.332 52.4782C187.266 48.4309 188.317 45.3439 190.352 43.1487Z" fill="white"></path><path d="M220.72 47.0932C221.869 47.642 222.789 48.4652 223.544 49.6314C224.2 50.6604 224.66 51.8266 224.857 53.1642C224.955 53.9531 225.021 55.085 224.988 56.5599H213.071C213.136 58.2749 213.695 59.4754 214.778 60.1613C215.435 60.5729 216.222 60.813 217.142 60.813C218.127 60.813 218.915 60.5386 219.506 60.0242C219.834 59.7498 220.129 59.3382 220.392 58.858H224.758C224.66 59.887 224.102 60.9159 223.183 61.9449C221.705 63.5913 219.67 64.4488 217.043 64.4488C214.876 64.4488 212.939 63.7628 211.298 62.3565C209.623 60.9502 208.803 58.6865 208.803 55.5309C208.803 52.5812 209.558 50.3174 211.068 48.7396C212.578 47.1618 214.515 46.3729 216.912 46.3729C218.291 46.3043 219.571 46.5787 220.72 47.0932ZM214.318 50.9691C213.727 51.6208 213.333 52.5126 213.169 53.6101H220.523C220.458 52.4097 220.064 51.5179 219.374 50.9005C218.685 50.2831 217.864 49.9744 216.846 49.9744C215.763 49.9744 214.909 50.3174 214.318 50.9691Z" fill="white"></path><path d="M240.288 47.7449C241.371 48.671 241.896 50.2145 241.896 52.3411V63.8314H237.53V53.4386C237.53 52.5468 237.431 51.8609 237.201 51.3807C236.775 50.4889 235.987 50.0773 234.805 50.0773C233.36 50.0773 232.375 50.729 231.85 51.9981C231.587 52.684 231.423 53.5415 231.423 54.6048V63.8314H227.155V46.7845H231.292V49.2884C231.85 48.3966 232.343 47.7792 232.835 47.4019C233.721 46.7159 234.805 46.3729 236.151 46.3729C237.858 46.3386 239.237 46.8188 240.288 47.7449Z" fill="white"></path><path d="M244.194 50.1115V46.9217H246.46V42.1541H250.695V46.9217H253.354V50.1115H250.695V59.1323C250.695 59.8183 250.793 60.2642 250.957 60.4357C251.122 60.6072 251.647 60.7101 252.5 60.7101C252.632 60.7101 252.763 60.7101 252.927 60.7101C253.059 60.7101 253.223 60.7101 253.354 60.6758V64.0028L251.319 64.0714C249.316 64.14 247.937 63.7628 247.182 62.9739C246.689 62.4594 246.46 61.6705 246.46 60.6072V50.1115H244.194Z" fill="white"></path><path d="M266.749 47.0932C267.898 47.642 268.817 48.4652 269.572 49.6314C270.229 50.6604 270.689 51.8266 270.886 53.1642C270.984 53.9531 271.05 55.085 271.017 56.5599H259.132C259.198 58.2749 259.756 59.4754 260.839 60.1613C261.496 60.5729 262.284 60.813 263.203 60.813C264.188 60.813 264.976 60.5386 265.567 60.0242C265.895 59.7498 266.191 59.3382 266.453 58.858H270.82C270.721 59.887 270.163 60.9159 269.244 61.9449C267.767 63.5913 265.731 64.4488 263.105 64.4488C260.938 64.4488 259.001 63.7628 257.359 62.3565C255.685 60.9502 254.864 58.6865 254.864 55.5309C254.864 52.5812 255.619 50.3174 257.13 48.7396C258.64 47.1618 260.577 46.3729 262.973 46.3729C264.319 46.3043 265.6 46.5787 266.749 47.0932ZM260.347 50.9691C259.756 51.6208 259.362 52.5126 259.198 53.6101H266.585C266.519 52.4097 266.125 51.5179 265.436 50.9005C264.746 50.2831 263.926 49.9744 262.908 49.9744C261.824 49.9744 260.971 50.3174 260.347 50.9691Z" fill="white"></path><path d="M282.245 46.3729C282.311 46.3729 282.409 46.3729 282.606 46.4072V50.969C282.344 50.9347 282.081 50.9004 281.884 50.9004C281.687 50.9004 281.49 50.9004 281.359 50.9004C279.651 50.9004 278.47 51.4835 277.911 52.6497C277.583 53.3014 277.419 54.3304 277.419 55.7024V63.8657H273.118V46.7845H277.189V49.7686C277.846 48.6367 278.437 47.8478 278.896 47.4362C279.684 46.7502 280.735 46.3729 282.015 46.3729C282.114 46.3386 282.179 46.3729 282.245 46.3729Z" fill="white"></path></svg>