<?xml version="1.0" encoding="UTF-8"?>
<!DOCTYPE svg PUBLIC "-//W3C//DTD SVG 1.1//EN" "http://www.w3.org/Graphics/SVG/1.1/DTD/svg11.dtd">
<svg xmlns="http://www.w3.org/2000/svg" version="1.1" width="3840px" height="2160px" style="shape-rendering:geometricPrecision; text-rendering:geometricPrecision; image-rendering:optimizeQuality; fill-rule:evenodd; clip-rule:evenodd" xmlns:xlink="http://www.w3.org/1999/xlink">
<g><path style="opacity:0.96" fill="#bebdbd" d="M 1947.5,143.5 C 2050.24,142.883 2149.24,161.717 2244.5,200C 2360.55,247.459 2456.39,321.293 2532,421.5C 2588.02,498.015 2622.85,583.349 2636.5,677.5C 2677.85,668.648 2719.01,662.648 2760,659.5C 2892.2,652.233 3017.7,679.733 3136.5,742C 3242.54,799.705 3325.04,881.205 3384,986.5C 3426.2,1065.83 3446.7,1150.67 3445.5,1241C 3502.61,1268.07 3552.45,1305.24 3595,1352.5C 3684.82,1457.94 3711.49,1577.94 3675,1712.5C 3650.24,1787.47 3607.41,1850.31 3546.5,1901C 3462.52,1968.67 3366.52,2005 3258.5,2010C 3127.26,2010.17 2996.1,2010.67 2865,2011.5C 2770.6,2010.93 2676.27,2010.59 2582,2010.5C 2485.53,2011.33 2389.03,2011.83 2292.5,2012C 1743.17,2012.95 1193.83,2013.28 644.5,2013C 541.843,2006.9 446.843,1976.23 359.5,1921C 273.408,1864.91 210.241,1789.74 170,1695.5C 120.224,1562.47 130.557,1433.8 201,1309.5C 265.402,1205.73 354.735,1133.06 469,1091.5C 517.364,1072.77 567.364,1061.44 619,1057.5C 677.171,1051.73 734.838,1054.73 792,1066.5C 805.63,969.06 848.797,887.56 921.5,822C 997.449,756.536 1085.12,719.036 1184.5,709.5C 1192.65,708.091 1200.81,707.091 1209,706.5C 1232.18,706.426 1255.35,706.76 1278.5,707.5C 1282.96,651.742 1295.79,597.742 1317,545.5C 1364.83,434.677 1438,344.511 1536.5,275C 1650.89,196.389 1777.06,153.556 1915,146.5C 1926.14,146.176 1936.97,145.176 1947.5,143.5 Z M 1933.5,181.5 C 1977.09,181.02 2020.42,183.52 2063.5,189C 2200.03,208.799 2319.69,264.132 2422.5,355C 2497.27,423.387 2550.43,505.553 2582,601.5C 2594.15,642.198 2601.65,683.198 2604.5,724.5C 2753.32,682.077 2899.65,687.244 3043.5,740C 3160.05,784.834 3254.21,858.668 3326,961.5C 3386.38,1054.4 3413.88,1155.74 3408.5,1265.5C 3474.74,1292.93 3530.9,1333.93 3577,1388.5C 3652,1485.73 3672,1592.4 3637,1708.5C 3608.62,1786.85 3560.12,1849.35 3491.5,1896C 3419.82,1943.36 3341.32,1969.19 3256,1973.5C 3222.42,1973.33 3188.42,1973 3154,1972.5C 2770.86,1973.94 2387.7,1974.94 2004.5,1975.5C 1910.62,1975.29 1816.79,1974.96 1723,1974.5C 1339.54,1975.78 983.203,1976.45 654,1976.5C 542.772,1970.65 441.939,1935.15 351.5,1870C 286.875,1821.06 238.375,1759.56 206,1685.5C 161.077,1567.29 167.743,1452.29 226,1340.5C 287.701,1235.14 376.201,1162.3 491.5,1122C 574.143,1094.52 654.976,1085.69 734,1095.5C 735,1095.17 736,1094.83 737,1094.5C 751.479,1096.35 765.813,1099.02 780,1102.5C 780.333,1102.17 780.667,1101.83 781,1101.5C 795.744,1104.85 810.41,1108.51 825,1112.5C 830.729,983.869 887.229,884.036 994.5,813C 1062.71,770.344 1136.71,747.178 1216.5,743.5C 1228.97,743.514 1241.47,743.514 1254,743.5C 1273.82,744.724 1293.32,746.724 1312.5,749.5C 1317.5,611.886 1366.33,492.552 1459,391.5C 1553.32,293.241 1667.16,229.074 1800.5,199C 1826.88,193.415 1853.72,188.915 1881,185.5C 1882.27,185.616 1883.6,185.949 1885,186.5C 1896.92,184.467 1908.92,183.134 1921,182.5C 1924.54,182.327 1928.21,182.66 1932,183.5C 1932.72,182.956 1933.22,182.289 1933.5,181.5 Z M 2942.5,1119.5 C 2941.4,1115.38 2939.4,1111.72 2936.5,1108.5C 2940.93,1104.9 2942.43,1100.23 2941,1094.5C 2939.46,1092.62 2937.62,1091.12 2935.5,1090C 2929.84,1089.5 2924.18,1089.33 2918.5,1089.5C 2929.52,1084.01 2939.02,1086.01 2947,1095.5C 2950.42,1102.59 2950.26,1109.59 2946.5,1116.5C 2945.72,1118.29 2944.38,1119.29 2942.5,1119.5 Z M 2917.5,1090.5 C 2918.2,1100.31 2918.54,1109.97 2918.5,1119.5C 2920.28,1121.34 2922.61,1122.01 2925.5,1121.5C 2925.5,1117.5 2925.5,1113.5 2925.5,1109.5C 2927.39,1109.3 2928.89,1109.96 2930,1111.5C 2930.99,1114.81 2932.49,1117.81 2934.5,1120.5C 2936.83,1121.17 2939.17,1121.83 2941.5,1122.5C 2928.23,1128.95 2917.73,1125.95 2910,1113.5C 2907.53,1106.34 2908.53,1099.67 2913,1093.5C 2914.13,1091.86 2915.63,1090.86 2917.5,1090.5 Z M 2925.5,1096.5 C 2927.86,1096.34 2930.19,1096.5 2932.5,1097C 2933.75,1098.46 2933.75,1099.96 2932.5,1101.5C 2930.26,1102.47 2927.92,1102.81 2925.5,1102.5C 2925.5,1100.5 2925.5,1098.5 2925.5,1096.5 Z M 1118.5,1123.5 C 1165.82,1124.13 1213.32,1124.13 1261,1123.5C 1294.71,1126.26 1318.21,1143.09 1331.5,1174C 1341.43,1209.38 1331.76,1238.55 1302.5,1261.5C 1292.79,1267.34 1282.46,1271.51 1271.5,1274C 1217.17,1274.67 1162.83,1274.67 1108.5,1274C 1074.52,1265.69 1053.69,1244.52 1046,1210.5C 1043.62,1165.39 1064.12,1136.89 1107.5,1125C 1111.36,1124.82 1115.02,1124.32 1118.5,1123.5 Z M 1962.5,1621.5 C 1962.5,1622.83 1963.17,1623.5 1964.5,1623.5C 1965.39,1624.11 1966.39,1624.44 1967.5,1624.5C 1967.5,1625.83 1968.17,1626.5 1969.5,1626.5C 1970.17,1626.83 1970.83,1627.17 1971.5,1627.5C 1971.5,1628.83 1972.17,1629.5 1973.5,1629.5C 1973.5,1630.83 1974.17,1631.5 1975.5,1631.5C 1983.29,1641.84 1987.95,1653.51 1989.5,1666.5C 1989.06,1666.43 1988.73,1666.6 1988.5,1667C 1989.11,1668.95 1989.78,1670.78 1990.5,1672.5C 1990.11,1674.64 1990.11,1676.64 1990.5,1678.5C 1989.55,1680.11 1989.21,1681.61 1989.5,1683C 1990.07,1683.99 1990.73,1684.83 1991.5,1685.5C 1991.5,1688.17 1991.5,1690.83 1991.5,1693.5C 1990.71,1693.78 1990.04,1694.28 1989.5,1695C 1990.07,1696.76 1990.41,1698.6 1990.5,1700.5C 1990.33,1714.07 1987.16,1727.07 1981,1739.5C 1971.29,1754.52 1957.62,1761.52 1940,1760.5C 1918.69,1759.01 1905.03,1748.01 1899,1727.5C 1893,1702.17 1893,1676.83 1899,1651.5C 1904.12,1634.05 1915.45,1623.05 1933,1618.5C 1938.44,1618.94 1943.61,1618.94 1948.5,1618.5C 1952.93,1619.28 1957.1,1620.61 1961,1622.5C 1961.38,1621.94 1961.88,1621.61 1962.5,1621.5 Z M 2346.5,1624.5 C 2347.4,1626.62 2348.74,1626.95 2350.5,1625.5C 2372.22,1627.39 2386.39,1638.72 2393,1659.5C 2393.88,1665.73 2395.05,1671.9 2396.5,1678C 2396.46,1685.84 2396.46,1693.67 2396.5,1701.5C 2395.13,1707.14 2393.96,1713.14 2393,1719.5C 2385.6,1741.79 2370.1,1753.29 2346.5,1754C 2337.51,1754.5 2328.51,1754.67 2319.5,1754.5C 2319.5,1711.17 2319.5,1667.83 2319.5,1624.5C 2328.5,1624.5 2337.5,1624.5 2346.5,1624.5 Z"/></g>
<g><path style="opacity:0.985" fill="#e82227" d="M 1935.5,1232.5 C 1914.24,1199.23 1893.08,1165.89 1872,1132.5C 1832.03,1194.48 1792.03,1256.48 1752,1318.5C 1742.57,1319.16 1733.07,1319.49 1723.5,1319.5C 1713.68,1319.66 1704.01,1319.16 1694.5,1318C 1743.72,1243.93 1792.38,1169.43 1840.5,1094.5C 1849.7,1082.15 1862.04,1076.31 1877.5,1077C 1887.19,1078.92 1895.02,1083.76 1901,1091.5C 1950.76,1166.71 2000.26,1242.04 2049.5,1317.5C 2049.29,1318.09 2048.96,1318.59 2048.5,1319C 2029.83,1319.67 2011.17,1319.67 1992.5,1319C 1983.81,1304.99 1975.14,1290.99 1966.5,1277C 1924.17,1276.67 1881.83,1276.33 1839.5,1276C 1830.33,1262.32 1821.33,1248.49 1812.5,1234.5C 1813.24,1233.71 1814.08,1233.05 1815,1232.5C 1855.12,1232.74 1895.28,1232.74 1935.5,1232.5 Z"/></g>
<g><path style="opacity:0.877" fill="#e12528" d="M 2922.5,1078.5 C 2942.75,1076.92 2954.75,1086.09 2958.5,1106C 2954.32,1126.92 2941.98,1135.92 2921.5,1133C 2905.17,1126.51 2898.67,1114.67 2902,1097.5C 2905.87,1087.79 2912.71,1081.45 2922.5,1078.5 Z M 2942.5,1119.5 C 2941.4,1115.38 2939.4,1111.72 2936.5,1108.5C 2940.93,1104.9 2942.43,1100.23 2941,1094.5C 2939.46,1092.62 2937.62,1091.12 2935.5,1090C 2929.84,1089.5 2924.18,1089.33 2918.5,1089.5C 2929.52,1084.01 2939.02,1086.01 2947,1095.5C 2950.42,1102.59 2950.26,1109.59 2946.5,1116.5C 2945.72,1118.29 2944.38,1119.29 2942.5,1119.5 Z M 2917.5,1090.5 C 2918.2,1100.31 2918.54,1109.97 2918.5,1119.5C 2920.28,1121.34 2922.61,1122.01 2925.5,1121.5C 2925.5,1117.5 2925.5,1113.5 2925.5,1109.5C 2927.39,1109.3 2928.89,1109.96 2930,1111.5C 2930.99,1114.81 2932.49,1117.81 2934.5,1120.5C 2936.83,1121.17 2939.17,1121.83 2941.5,1122.5C 2928.23,1128.95 2917.73,1125.95 2910,1113.5C 2907.53,1106.34 2908.53,1099.67 2913,1093.5C 2914.13,1091.86 2915.63,1090.86 2917.5,1090.5 Z M 2925.5,1096.5 C 2925.5,1098.5 2925.5,1100.5 2925.5,1102.5C 2927.92,1102.81 2930.26,1102.47 2932.5,1101.5C 2933.75,1099.96 2933.75,1098.46 2932.5,1097C 2930.19,1096.5 2927.86,1096.34 2925.5,1096.5 Z"/></g>
<g><path style="opacity:0.981" fill="#e82227" d="M 1319.5,1304.5 C 1318.51,1304.33 1317.84,1304.66 1317.5,1305.5C 1305.9,1311.23 1293.4,1315.56 1280,1318.5C 1278.25,1317.83 1276.58,1317.49 1275,1317.5C 1274,1318.17 1273,1318.83 1272,1319.5C 1218.06,1319.5 1164.06,1319.5 1110,1319.5C 1062.14,1313.68 1027.48,1289.01 1006,1245.5C 987.774,1192.48 998.608,1146.98 1038.5,1109C 1057.85,1092.76 1080.18,1083.1 1105.5,1080C 1161.83,1079.33 1218.17,1079.33 1274.5,1080C 1334.55,1089.73 1370.72,1124.23 1383,1183.5C 1387.09,1237.32 1365.93,1277.66 1319.5,1304.5 Z M 1118.5,1123.5 C 1115.02,1124.32 1111.36,1124.82 1107.5,1125C 1064.12,1136.89 1043.62,1165.39 1046,1210.5C 1053.69,1244.52 1074.52,1265.69 1108.5,1274C 1162.83,1274.67 1217.17,1274.67 1271.5,1274C 1282.46,1271.51 1292.79,1267.34 1302.5,1261.5C 1331.76,1238.55 1341.43,1209.38 1331.5,1174C 1318.21,1143.09 1294.71,1126.26 1261,1123.5C 1213.32,1124.13 1165.82,1124.13 1118.5,1123.5 Z"/></g>
<g><path style="opacity:0.972" fill="#e82227" d="M 1605.5,1309.5 C 1605.17,1308.5 1604.5,1307.83 1603.5,1307.5C 1574.61,1284.21 1546.28,1260.21 1518.5,1235.5C 1518.17,1234.5 1517.5,1233.83 1516.5,1233.5C 1510.14,1228.14 1503.81,1222.8 1497.5,1217.5C 1497.17,1216.5 1496.5,1215.83 1495.5,1215.5C 1488.24,1210.91 1481.91,1205.24 1476.5,1198.5C 1523.83,1197.67 1571.16,1197.17 1618.5,1197C 1640.81,1189.07 1649.98,1173.57 1646,1150.5C 1639.98,1134.82 1628.65,1125.82 1612,1123.5C 1560.11,1124.62 1508.28,1124.62 1456.5,1123.5C 1455.67,1188.5 1455.17,1253.5 1455,1318.5C 1439.24,1319.66 1423.41,1319.82 1407.5,1319C 1406.5,1239.24 1406.17,1159.4 1406.5,1079.5C 1478.83,1079.33 1551.17,1079.5 1623.5,1080C 1659.98,1086.81 1683.48,1107.98 1694,1143.5C 1699.7,1188.94 1681.54,1220.44 1639.5,1238C 1624.98,1241.63 1609.98,1243.29 1594.5,1243C 1624.5,1267.33 1654.5,1291.67 1684.5,1316C 1685.34,1317.01 1685.67,1318.18 1685.5,1319.5C 1662.5,1319.67 1639.5,1319.5 1616.5,1319C 1612.64,1315.97 1608.97,1312.8 1605.5,1309.5 Z"/></g>
<g><path style="opacity:0.98" fill="#e82227" d="M 2144.5,1275.5 C 2202.57,1275.17 2260.57,1275.5 2318.5,1276.5C 2309.55,1290.9 2300.22,1305.06 2290.5,1319C 2239.19,1319.49 2188.02,1319.65 2137,1319.5C 2081.67,1312.28 2044.84,1282.45 2026.5,1230C 2026.83,1229.67 2027.17,1229.33 2027.5,1229C 2025.98,1223.72 2024.65,1218.38 2023.5,1213C 2024.37,1210.97 2024.71,1208.63 2024.5,1206C 2023.83,1205 2023.17,1204 2022.5,1203C 2022.27,1171.39 2033.43,1142.89 2056,1117.5C 2077.21,1096.48 2102.38,1083.98 2131.5,1080C 2192.5,1079.5 2253.5,1079.33 2314.5,1079.5C 2314.51,1081.31 2314.01,1082.98 2313,1084.5C 2304.59,1095.65 2296.92,1107.32 2290,1119.5C 2288.55,1121.4 2286.89,1123.07 2285,1124.5C 2238.46,1124.58 2191.79,1124.24 2145,1123.5C 2111.36,1127.16 2088.03,1144.49 2075,1175.5C 2066.16,1210.26 2075.66,1238.76 2103.5,1261C 2115.97,1269.24 2129.64,1274.07 2144.5,1275.5 Z"/></g>
<g><path style="opacity:0.991" fill="#e52327" d="M 2338.5,1079.5 C 2354.74,1079.18 2370.91,1079.51 2387,1080.5C 2387.5,1145.17 2387.67,1209.83 2387.5,1274.5C 2459.83,1274.5 2532.17,1274.5 2604.5,1274.5C 2604.66,1275.87 2604.49,1277.21 2604,1278.5C 2594.96,1292.09 2585.79,1305.59 2576.5,1319C 2504.5,1319.67 2432.5,1319.67 2360.5,1319C 2348.81,1317.25 2341.31,1310.75 2338,1299.5C 2337.17,1226.1 2337.34,1152.76 2338.5,1079.5 Z"/></g>
<g><path style="opacity:0.975" fill="#e82227" d="M 2700.5,1079.5 C 2761.17,1079.33 2821.83,1079.5 2882.5,1080C 2883.45,1080.72 2883.62,1081.55 2883,1082.5C 2874.35,1095.8 2865.68,1109.13 2857,1122.5C 2855.67,1123.17 2854.33,1123.83 2853,1124.5C 2806.57,1124.36 2760.07,1124.03 2713.5,1123.5C 2679.25,1127.12 2655.92,1144.95 2643.5,1177C 2719.17,1177.5 2794.83,1177.67 2870.5,1177.5C 2861.85,1192.34 2852.52,1206.84 2842.5,1221C 2776.17,1221.33 2709.83,1221.67 2643.5,1222C 2654.26,1250.1 2674.26,1267.44 2703.5,1274C 2764.5,1274.33 2825.5,1274.67 2886.5,1275C 2887.45,1275.72 2887.62,1276.55 2887,1277.5C 2877.83,1291.33 2868.67,1305.17 2859.5,1319C 2808.13,1319.49 2756.96,1319.66 2706,1319.5C 2658.66,1314.22 2624,1290.22 2602,1247.5C 2581.76,1195.76 2591.93,1149.93 2632.5,1110C 2652.43,1093.53 2675.09,1083.37 2700.5,1079.5 Z"/></g>
<g><path style="opacity:0.901" fill="#e32427" d="M 2918.5,1090.5 C 2918.5,1090.17 2918.5,1089.83 2918.5,1089.5C 2924.18,1089.33 2929.84,1089.5 2935.5,1090C 2937.62,1091.12 2939.46,1092.62 2941,1094.5C 2942.43,1100.23 2940.93,1104.9 2936.5,1108.5C 2939.4,1111.72 2941.4,1115.38 2942.5,1119.5C 2942.5,1119.83 2942.5,1120.17 2942.5,1120.5C 2939.83,1120.5 2937.17,1120.5 2934.5,1120.5C 2932.49,1117.81 2930.99,1114.81 2930,1111.5C 2928.89,1109.96 2927.39,1109.3 2925.5,1109.5C 2925.5,1113.5 2925.5,1117.5 2925.5,1121.5C 2922.61,1122.01 2920.28,1121.34 2918.5,1119.5C 2919.83,1109.83 2919.83,1100.17 2918.5,1090.5 Z M 2925.5,1096.5 C 2925.5,1098.5 2925.5,1100.5 2925.5,1102.5C 2927.92,1102.81 2930.26,1102.47 2932.5,1101.5C 2933.75,1099.96 2933.75,1098.46 2932.5,1097C 2930.19,1096.5 2927.86,1096.34 2925.5,1096.5 Z"/></g>
<g><path style="opacity:0.533" fill="#c72c2b" d="M 2917.5,1090.5 C 2917.83,1090.5 2918.17,1090.5 2918.5,1090.5C 2919.83,1100.17 2919.83,1109.83 2918.5,1119.5C 2918.54,1109.97 2918.2,1100.31 2917.5,1090.5 Z"/></g>
<g><path style="opacity:0.118" fill="#8a3434" d="M 2934.5,1120.5 C 2937.17,1120.5 2939.83,1120.5 2942.5,1120.5C 2942.67,1121.49 2942.34,1122.16 2941.5,1122.5C 2939.17,1121.83 2936.83,1121.17 2934.5,1120.5 Z"/></g>
<g><path style="opacity:0.118" fill="#8a3434" d="M 1495.5,1215.5 C 1496.5,1215.83 1497.17,1216.5 1497.5,1217.5C 1496.17,1217.5 1495.5,1216.83 1495.5,1215.5 Z"/></g>
<g><path style="opacity:0.118" fill="#8a3434" d="M 1516.5,1233.5 C 1517.5,1233.83 1518.17,1234.5 1518.5,1235.5C 1517.17,1235.5 1516.5,1234.83 1516.5,1233.5 Z"/></g>
<g><path style="opacity:0.118" fill="#8a3434" d="M 2144.5,1275.5 C 2173.33,1274.83 2202.33,1274.5 2231.5,1274.5C 2260.84,1274.5 2289.84,1275.17 2318.5,1276.5C 2260.57,1275.5 2202.57,1275.17 2144.5,1275.5 Z"/></g>
<g><path style="opacity:0.118" fill="#8a3434" d="M 1319.5,1304.5 C 1318.99,1306.11 1318.33,1306.44 1317.5,1305.5C 1317.84,1304.66 1318.51,1304.33 1319.5,1304.5 Z"/></g>
<g><path style="opacity:0.118" fill="#8a3434" d="M 1603.5,1307.5 C 1604.5,1307.83 1605.17,1308.5 1605.5,1309.5C 1604.17,1309.5 1603.5,1308.83 1603.5,1307.5 Z"/></g>
<g><path style="opacity:0.895" fill="#0f0605" d="M 998.5,1451.5 C 1650.17,1451.5 2301.83,1451.5 2953.5,1451.5C 2953.5,1456.17 2953.5,1460.83 2953.5,1465.5C 2301.5,1465.5 1649.5,1465.5 997.5,1465.5C 997.226,1460.74 997.559,1456.07 998.5,1451.5 Z"/></g>
<g><path style="opacity:0.971" fill="#060202" d="M 1627.5,1631.5 C 1627.17,1630.5 1626.5,1629.83 1625.5,1629.5C 1624.17,1628.83 1623.17,1627.83 1622.5,1626.5C 1622.17,1625.5 1621.5,1624.83 1620.5,1624.5C 1615.56,1622.02 1610.4,1620.02 1605,1618.5C 1601.65,1618.52 1598.32,1618.52 1595,1618.5C 1587.67,1619.5 1581.67,1622.83 1577,1628.5C 1570.72,1637.99 1566.39,1648.32 1564,1659.5C 1559.51,1684.77 1560.84,1709.77 1568,1734.5C 1577.85,1759.95 1595.02,1766.62 1619.5,1754.5C 1622.52,1752.15 1625.19,1749.48 1627.5,1746.5C 1628.5,1746.17 1629.17,1745.5 1629.5,1744.5C 1629.56,1743.39 1629.89,1742.39 1630.5,1741.5C 1631.4,1740.71 1632.07,1739.71 1632.5,1738.5C 1632.39,1737.88 1632.06,1737.38 1631.5,1737C 1632.63,1732.19 1633.97,1727.52 1635.5,1723C 1650.17,1722.33 1664.83,1722.33 1679.5,1723C 1680.94,1744.19 1673.6,1761.86 1657.5,1776C 1644.26,1785.15 1629.93,1790.49 1614.5,1792C 1605.51,1792.5 1596.51,1792.67 1587.5,1792.5C 1585.34,1791.59 1583.01,1790.93 1580.5,1790.5C 1569.84,1789.33 1560.17,1785.67 1551.5,1779.5C 1551.03,1778.09 1550.03,1777.43 1548.5,1777.5C 1532.04,1763.58 1522.04,1745.92 1518.5,1724.5C 1518.67,1723.51 1518.34,1722.84 1517.5,1722.5C 1511.25,1690.58 1514.08,1659.58 1526,1629.5C 1538.18,1605.93 1557.01,1591.76 1582.5,1587C 1603.46,1584.5 1623.46,1586.84 1642.5,1594C 1668.44,1606.7 1680.94,1627.54 1680,1656.5C 1664.85,1655.86 1649.35,1655.53 1633.5,1655.5C 1634,1646.82 1632,1638.82 1627.5,1631.5 Z"/></g>
<g><path style="opacity:0.974" fill="#050101" d="M 1959.5,1791.5 C 1957.26,1791.21 1955.26,1791.54 1953.5,1792.5C 1944.49,1792.67 1935.49,1792.5 1926.5,1792C 1920.48,1791.05 1914.65,1789.55 1909,1787.5C 1908.67,1787.83 1908.33,1788.17 1908,1788.5C 1901.71,1785.71 1895.55,1782.71 1889.5,1779.5C 1889.03,1778.09 1888.03,1777.43 1886.5,1777.5C 1877.46,1772.12 1870.46,1764.79 1865.5,1755.5C 1865.17,1754.5 1864.5,1753.83 1863.5,1753.5C 1851.48,1733.25 1846.15,1711.41 1847.5,1688C 1850.33,1615.05 1887.67,1581.38 1959.5,1587C 2003.16,1594.32 2028.66,1620.16 2036,1664.5C 2039.76,1690.2 2037.43,1715.2 2029,1739.5C 2015.84,1770.02 1992.67,1787.35 1959.5,1791.5 Z M 1962.5,1621.5 C 1962.5,1622.83 1963.17,1623.5 1964.5,1623.5C 1965.39,1624.11 1966.39,1624.44 1967.5,1624.5C 1967.5,1625.83 1968.17,1626.5 1969.5,1626.5C 1970.17,1626.83 1970.83,1627.17 1971.5,1627.5C 1971.5,1628.83 1972.17,1629.5 1973.5,1629.5C 1973.5,1630.83 1974.17,1631.5 1975.5,1631.5C 1983.29,1641.84 1987.95,1653.51 1989.5,1666.5C 1989.06,1666.43 1988.73,1666.6 1988.5,1667C 1989.11,1668.95 1989.78,1670.78 1990.5,1672.5C 1990.11,1674.64 1990.11,1676.64 1990.5,1678.5C 1989.55,1680.11 1989.21,1681.61 1989.5,1683C 1990.07,1683.99 1990.73,1684.83 1991.5,1685.5C 1991.5,1688.17 1991.5,1690.83 1991.5,1693.5C 1990.71,1693.78 1990.04,1694.28 1989.5,1695C 1990.07,1696.76 1990.41,1698.6 1990.5,1700.5C 1990.33,1714.07 1987.16,1727.07 1981,1739.5C 1971.29,1754.52 1957.62,1761.52 1940,1760.5C 1918.69,1759.01 1905.03,1748.01 1899,1727.5C 1893,1702.17 1893,1676.83 1899,1651.5C 1904.12,1634.05 1915.45,1623.05 1933,1618.5C 1938.44,1618.94 1943.61,1618.94 1948.5,1618.5C 1952.93,1619.28 1957.1,1620.61 1961,1622.5C 1961.38,1621.94 1961.88,1621.61 1962.5,1621.5 Z"/></g>
<g><path style="opacity:0.975" fill="#050201" d="M 2277.5,1589.5 C 2300.86,1590.12 2324.02,1590.12 2347,1589.5C 2410.88,1591.89 2442.72,1625.22 2442.5,1689.5C 2444.47,1745.67 2417.97,1778.67 2363,1788.5C 2335.02,1788.66 2306.02,1788.33 2276,1787.5C 2275.83,1754.67 2275.67,1721.83 2275.5,1689C 2275.51,1655.62 2276.17,1622.45 2277.5,1589.5 Z M 2346.5,1624.5 C 2347.4,1626.62 2348.74,1626.95 2350.5,1625.5C 2372.22,1627.39 2386.39,1638.72 2393,1659.5C 2393.88,1665.73 2395.05,1671.9 2396.5,1678C 2396.46,1685.84 2396.46,1693.67 2396.5,1701.5C 2395.13,1707.14 2393.96,1713.14 2393,1719.5C 2385.6,1741.79 2370.1,1753.29 2346.5,1754C 2337.51,1754.5 2328.51,1754.67 2319.5,1754.5C 2319.5,1711.17 2319.5,1667.83 2319.5,1624.5C 2328.5,1624.5 2337.5,1624.5 2346.5,1624.5 Z"/></g>
<g><path style="opacity:0.97" fill="#040101" d="M 1704.5,1590.5 C 1719.08,1590.18 1733.58,1590.51 1748,1591.5C 1748.5,1645.83 1748.67,1700.17 1748.5,1754.5C 1776.5,1754.5 1804.5,1754.5 1832.5,1754.5C 1832.5,1765.83 1832.5,1777.17 1832.5,1788.5C 1789.79,1788.51 1747.29,1788.51 1705,1788.5C 1704.5,1722.5 1704.33,1656.5 1704.5,1590.5 Z"/></g>
<g><path style="opacity:0.972" fill="#040101" d="M 2195.5,1718.5 C 2196.49,1712.36 2196.82,1706.02 2196.5,1699.5C 2195.59,1663.71 2195.42,1627.71 2196,1591.5C 2210.42,1590.51 2224.92,1590.18 2239.5,1590.5C 2239.67,1636.83 2239.5,1683.17 2239,1729.5C 2233.5,1760.28 2215.67,1780.12 2185.5,1789C 2160.41,1794.77 2135.74,1793.43 2111.5,1785C 2086.41,1773.42 2072.41,1753.92 2069.5,1726.5C 2069.77,1724.9 2069.43,1723.57 2068.5,1722.5C 2067.63,1678.6 2067.63,1634.6 2068.5,1590.5C 2082.83,1590.5 2097.17,1590.5 2111.5,1590.5C 2111.33,1628.17 2111.5,1665.83 2112,1703.5C 2112.78,1713.52 2113.78,1723.52 2115,1733.5C 2118.35,1747.85 2127.18,1756.35 2141.5,1759C 2154.63,1761.88 2167.63,1760.22 2180.5,1754C 2187.55,1747.62 2192.05,1739.79 2194,1730.5C 2194.69,1726.23 2195.19,1722.23 2195.5,1718.5 Z"/></g>
<g><path style="opacity:0.118" fill="#8a3434" d="M 1962.5,1621.5 C 1963.5,1621.83 1964.17,1622.5 1964.5,1623.5C 1963.17,1623.5 1962.5,1622.83 1962.5,1621.5 Z"/></g>
<g><path style="opacity:0.118" fill="#8a3434" d="M 1620.5,1624.5 C 1621.5,1624.83 1622.17,1625.5 1622.5,1626.5C 1621.17,1626.5 1620.5,1625.83 1620.5,1624.5 Z"/></g>
<g><path style="opacity:0.118" fill="#8a3434" d="M 1967.5,1624.5 C 1968.5,1624.83 1969.17,1625.5 1969.5,1626.5C 1968.17,1626.5 1967.5,1625.83 1967.5,1624.5 Z"/></g>
<g><path style="opacity:0.118" fill="#8a3434" d="M 2346.5,1624.5 C 2348.1,1624.23 2349.43,1624.57 2350.5,1625.5C 2348.74,1626.95 2347.4,1626.62 2346.5,1624.5 Z"/></g>
<g><path style="opacity:0.118" fill="#8a3434" d="M 1971.5,1627.5 C 1972.5,1627.83 1973.17,1628.5 1973.5,1629.5C 1972.17,1629.5 1971.5,1628.83 1971.5,1627.5 Z"/></g>
<g><path style="opacity:0.118" fill="#8a3434" d="M 1625.5,1629.5 C 1626.5,1629.83 1627.17,1630.5 1627.5,1631.5C 1626.17,1631.5 1625.5,1630.83 1625.5,1629.5 Z"/></g>
<g><path style="opacity:0.118" fill="#8a3434" d="M 1973.5,1629.5 C 1974.5,1629.83 1975.17,1630.5 1975.5,1631.5C 1974.17,1631.5 1973.5,1630.83 1973.5,1629.5 Z"/></g>
<g><path style="opacity:0.118" fill="#8a3434" d="M 1989.5,1666.5 C 1990.46,1668.26 1990.79,1670.26 1990.5,1672.5C 1989.78,1670.78 1989.11,1668.95 1988.5,1667C 1988.73,1666.6 1989.06,1666.43 1989.5,1666.5 Z"/></g>
<g><path style="opacity:0.118" fill="#8a3434" d="M 1990.5,1678.5 C 1991.47,1680.61 1991.8,1682.94 1991.5,1685.5C 1990.73,1684.83 1990.07,1683.99 1989.5,1683C 1989.21,1681.61 1989.55,1680.11 1990.5,1678.5 Z"/></g>
<g><path style="opacity:0.118" fill="#8a3434" d="M 1991.5,1693.5 C 1991.8,1696.06 1991.47,1698.39 1990.5,1700.5C 1990.41,1698.6 1990.07,1696.76 1989.5,1695C 1990.04,1694.28 1990.71,1693.78 1991.5,1693.5 Z"/></g>
<g><path style="opacity:0.118" fill="#8a3434" d="M 2196.5,1699.5 C 2196.82,1706.02 2196.49,1712.36 2195.5,1718.5C 2195.39,1717.88 2195.06,1717.38 2194.5,1717C 2195.15,1711.07 2195.81,1705.23 2196.5,1699.5 Z"/></g>
<g><path style="opacity:0.118" fill="#8a3434" d="M 1517.5,1722.5 C 1518.34,1722.84 1518.67,1723.51 1518.5,1724.5C 1516.89,1723.99 1516.56,1723.33 1517.5,1722.5 Z"/></g>
<g><path style="opacity:0.118" fill="#8a3434" d="M 2068.5,1722.5 C 2069.43,1723.57 2069.77,1724.9 2069.5,1726.5C 2068.75,1725.47 2068.08,1724.3 2067.5,1723C 2067.73,1722.6 2068.06,1722.43 2068.5,1722.5 Z"/></g>
<g><path style="opacity:0.118" fill="#8a3434" d="M 1632.5,1738.5 C 1632.07,1739.71 1631.4,1740.71 1630.5,1741.5C 1630.29,1739.82 1630.95,1738.82 1632.5,1738.5 Z"/></g>
<g><path style="opacity:0.118" fill="#8a3434" d="M 1629.5,1744.5 C 1629.17,1745.5 1628.5,1746.17 1627.5,1746.5C 1627.5,1745.17 1628.17,1744.5 1629.5,1744.5 Z"/></g>
<g><path style="opacity:0.118" fill="#8a3434" d="M 1863.5,1753.5 C 1864.5,1753.83 1865.17,1754.5 1865.5,1755.5C 1864.17,1755.5 1863.5,1754.83 1863.5,1753.5 Z"/></g>
<g><path style="opacity:0.118" fill="#8a3434" d="M 1548.5,1777.5 C 1550.03,1777.43 1551.03,1778.09 1551.5,1779.5C 1549.97,1779.57 1548.97,1778.91 1548.5,1777.5 Z"/></g>
<g><path style="opacity:0.118" fill="#8a3434" d="M 1886.5,1777.5 C 1888.03,1777.43 1889.03,1778.09 1889.5,1779.5C 1887.97,1779.57 1886.97,1778.91 1886.5,1777.5 Z"/></g>
<g><path style="opacity:0.118" fill="#8a3434" d="M 1580.5,1790.5 C 1583.01,1790.93 1585.34,1791.59 1587.5,1792.5C 1585.47,1792.66 1583.47,1792.5 1581.5,1792C 1580.94,1791.62 1580.61,1791.12 1580.5,1790.5 Z"/></g>
<g><path style="opacity:0.118" fill="#8a3434" d="M 1953.5,1792.5 C 1955.26,1791.54 1957.26,1791.21 1959.5,1791.5C 1957.56,1792.83 1955.56,1793.16 1953.5,1792.5 Z"/></g>
</svg>
