<?xml version="1.0" encoding="UTF-8"?>
<!DOCTYPE svg PUBLIC "-//W3C//DTD SVG 1.1//EN" "http://www.w3.org/Graphics/SVG/1.1/DTD/svg11.dtd">
<svg xmlns="http://www.w3.org/2000/svg" version="1.1" width="1403px" height="883px" style="shape-rendering:geometricPrecision; text-rendering:geometricPrecision; image-rendering:optimizeQuality; fill-rule:evenodd; clip-rule:evenodd" xmlns:xlink="http://www.w3.org/1999/xlink">
<g><path style="opacity:0.57" fill="#16191c" d="M 849.5,56.5 C 831.085,52.1981 812.418,49.8647 793.5,49.5C 773.263,49.863 753.263,52.1963 733.5,56.5C 763.173,47.8034 793.173,45.6368 823.5,50C 832.495,51.3597 841.161,53.5263 849.5,56.5 Z"/></g>
<g><path style="opacity:0.999" fill="#050506" d="M 849.5,56.5 C 886.417,66.5836 914.917,87.9169 935,120.5C 938.324,132.605 939.824,144.938 939.5,157.5C 939.018,175.306 937.184,192.972 934,210.5C 920.489,269.326 898.322,324.492 867.5,376C 875.061,377.598 882.728,377.931 890.5,377C 901.338,375.499 912.171,373.999 923,372.5C 935.768,373.101 942.268,379.768 942.5,392.5C 940.069,410.913 931.403,425.58 916.5,436.5C 888.754,451.626 859.087,456.96 827.5,452.5C 824.587,476.137 821.92,499.804 819.5,523.5C 819.121,544.023 813.621,563.023 803,580.5C 800.613,583.957 797.78,586.957 794.5,589.5C 793.448,589.351 792.448,589.517 791.5,590C 778.111,601.029 762.778,608.029 745.5,611C 721.607,617.065 698.607,614.232 676.5,602.5C 662.588,592.35 654.588,578.683 652.5,561.5C 648.557,529.963 646.557,498.296 646.5,466.5C 640.865,468.647 635.198,470.813 629.5,473C 602.844,476.605 577.177,472.938 552.5,462C 549.96,459.795 547.793,457.295 546,454.5C 543.546,456.441 541.713,458.775 540.5,461.5C 529.15,471.788 516.15,474.288 501.5,469C 487.049,460.883 475.549,449.716 467,435.5C 457.151,419.31 448.817,402.31 442,384.5C 419.891,326.02 404.224,266.687 395,206.5C 388.997,95.0292 441.497,45.5292 552.5,58C 571.235,61.1423 589.735,65.309 608,70.5C 631.634,58.0872 656.801,52.9205 683.5,55C 695.454,55.6119 707.288,57.1119 719,59.5C 723.728,57.9425 728.562,56.9425 733.5,56.5C 753.263,52.1963 773.263,49.863 793.5,49.5C 812.418,49.8647 831.085,52.1981 849.5,56.5 Z"/></g>
<g><path style="opacity:1" fill="#fafafb" d="M 881.5,91.5 C 881.973,92.9063 882.973,93.573 884.5,93.5C 889.309,97.7379 894.309,101.738 899.5,105.5C 899.5,106.167 899.833,106.5 900.5,106.5C 902.766,110.436 905.766,113.769 909.5,116.5C 909.5,117.167 909.833,117.5 910.5,117.5C 910.738,119.404 911.738,120.738 913.5,121.5C 913.5,122.167 913.833,122.5 914.5,122.5C 916.322,126.145 918.156,129.811 920,133.5C 922.152,143.08 923.652,152.747 924.5,162.5C 922.869,196.353 916.702,229.353 906,261.5C 895.926,290.647 883.926,318.981 870,346.5C 862.406,359.12 854.906,371.786 847.5,384.5C 848.34,385.735 849.34,386.735 850.5,387.5C 852.838,389.04 855.505,389.706 858.5,389.5C 858.833,389.5 859.167,389.5 859.5,389.5C 865.987,390.654 872.654,390.821 879.5,390C 884.127,389.95 888.46,389.117 892.5,387.5C 895.206,387.425 897.873,387.092 900.5,386.5C 906.138,385.78 911.804,385.447 917.5,385.5C 926.938,389.981 929.104,396.981 924,406.5C 911.879,419.619 897.379,429.119 880.5,435C 874.915,435.581 869.582,436.914 864.5,439C 853.536,440.248 842.536,440.748 831.5,440.5C 826.88,438.837 822.213,438.503 817.5,439.5C 815.698,447.718 814.698,456.052 814.5,464.5C 813.383,468.295 812.717,472.295 812.5,476.5C 810.278,500.722 806.611,524.722 801.5,548.5C 799.733,550.792 798.733,553.458 798.5,556.5C 791.693,573.14 780.027,584.973 763.5,592C 747.558,598.768 730.891,601.434 713.5,600C 701.109,598.055 690.609,592.555 682,583.5C 672.398,571.157 666.398,557.157 664,541.5C 662.174,528.897 661.34,516.23 661.5,503.5C 661.833,483.822 661.5,464.155 660.5,444.5C 659.893,444.624 659.56,444.957 659.5,445.5C 658.833,445.5 658.5,445.833 658.5,446.5C 638.543,461.266 616.21,466.266 591.5,461.5C 589.562,459.837 587.228,459.171 584.5,459.5C 571.917,457.568 563.917,450.568 560.5,438.5C 562.139,431.696 566.139,426.863 572.5,424C 580.64,421.142 588.973,419.142 597.5,418C 609.184,414.829 618.184,407.996 624.5,397.5C 614.424,396.973 605.09,394.14 596.5,389C 595.5,388.333 594.5,388.333 593.5,389C 576.5,408 559.5,427 542.5,446C 527.957,457.825 512.957,458.492 497.5,448C 486.07,437.905 476.903,426.072 470,412.5C 461.947,395.831 454.78,378.831 448.5,361.5C 448.02,358.557 447.02,355.89 445.5,353.5C 437.572,328.459 430.572,303.126 424.5,277.5C 424.59,274.848 423.924,272.515 422.5,270.5C 422.5,269.833 422.5,269.167 422.5,268.5C 422.435,265.572 421.768,262.905 420.5,260.5C 418.862,251.475 417.028,242.475 415,233.5C 413.51,225.898 412.677,218.231 412.5,210.5C 412.308,195.149 412.641,179.816 413.5,164.5C 413.5,164.167 413.5,163.833 413.5,163.5C 414.657,160.727 415.324,157.727 415.5,154.5C 417.996,141.01 422.663,128.343 429.5,116.5C 432.16,112.839 434.826,109.172 437.5,105.5C 438.167,105.5 438.5,105.167 438.5,104.5C 439.167,104.5 439.5,104.167 439.5,103.5C 440.167,103.5 440.5,103.167 440.5,102.5C 443.859,99.4715 447.192,96.4715 450.5,93.5C 452.027,93.573 453.027,92.9063 453.5,91.5C 454.167,91.5 454.5,91.1667 454.5,90.5C 466.488,83.0112 479.488,78.0112 493.5,75.5C 498.75,75.6975 503.75,75.0308 508.5,73.5C 520.848,73.4142 533.181,73.7475 545.5,74.5C 545.833,74.5 546.167,74.5 546.5,74.5C 550.964,75.6437 555.63,76.3104 560.5,76.5C 578.184,79.9625 595.684,84.2959 613,89.5C 618.851,86.8251 624.684,83.9918 630.5,81C 636.007,78.5746 641.674,76.7413 647.5,75.5C 654.111,75.4527 660.444,74.4527 666.5,72.5C 679.814,71.2204 693.148,71.5538 706.5,73.5C 709.589,74.7846 712.922,75.4512 716.5,75.5C 717.5,75.5 718.5,75.5 719.5,75.5C 722.34,76.9171 725.007,76.5838 727.5,74.5C 768.765,62.0334 810.098,62.5334 851.5,76C 861.993,80.4118 871.993,85.5784 881.5,91.5 Z"/></g>
<g><path style="opacity:0.996" fill="#666666" d="M 508.5,73.5 C 513.155,72.8341 517.988,72.5007 523,72.5C 530.723,72.3501 538.223,73.0168 545.5,74.5C 533.181,73.7475 520.848,73.4142 508.5,73.5 Z"/></g>
<g><path style="opacity:0.996" fill="#c5c7ca" d="M 666.5,72.5 C 660.444,74.4527 654.111,75.4527 647.5,75.5C 653.489,73.1273 659.822,72.1273 666.5,72.5 Z"/></g>
<g><path style="opacity:0.988" fill="#9fa1a2" d="M 508.5,73.5 C 503.75,75.0308 498.75,75.6975 493.5,75.5C 498.25,73.9692 503.25,73.3025 508.5,73.5 Z"/></g>
<g><path style="opacity:0.984" fill="#909090" d="M 546.5,74.5 C 551.434,74.2291 556.1,74.8958 560.5,76.5C 555.63,76.3104 550.964,75.6437 546.5,74.5 Z"/></g>
<g><path style="opacity:0.992" fill="#797979" d="M 706.5,73.5 C 710.122,73.322 713.456,73.9886 716.5,75.5C 712.922,75.4512 709.589,74.7846 706.5,73.5 Z"/></g>
<g><path style="opacity:0.992" fill="#898989" d="M 727.5,74.5 C 725.007,76.5838 722.34,76.9171 719.5,75.5C 722.206,75.4249 724.873,75.0916 727.5,74.5 Z"/></g>
<g><path style="opacity:1" fill="#6588ad" d="M 802.5,82.5 C 789.485,82.3971 776.485,82.7304 763.5,83.5C 771.282,82.0331 779.282,81.3664 787.5,81.5C 792.678,81.5007 797.678,81.834 802.5,82.5 Z"/></g>
<g><path style="opacity:1" fill="#326192" d="M 802.5,82.5 C 843.454,84.5592 876.621,101.559 902,133.5C 905.155,139.462 906.988,145.796 907.5,152.5C 907.497,165.206 906.83,177.873 905.5,190.5C 905.665,193.518 905.498,196.518 905,199.5C 892.733,260.659 869.733,317.326 836,369.5C 835.056,368.737 834.556,367.737 834.5,366.5C 839.375,356.993 842.709,346.993 844.5,336.5C 845.29,335.391 845.79,334.058 846,332.5C 846.824,323.324 846.657,314.324 845.5,305.5C 845.5,305.167 845.5,304.833 845.5,304.5C 845.221,295.281 844.221,286.281 842.5,277.5C 842.5,268.5 842.5,259.5 842.5,250.5C 846.775,233.882 848.275,216.882 847,199.5C 846.1,196.282 844.933,193.282 843.5,190.5C 825.882,143.543 794.549,108.877 749.5,86.5C 753.878,84.2393 758.545,83.2393 763.5,83.5C 776.485,82.7304 789.485,82.3971 802.5,82.5 Z"/></g>
<g><path style="opacity:1" fill="#7a99b9" d="M 701.5,89.5 C 687.491,88.2306 673.491,88.2306 659.5,89.5C 660.263,88.7321 661.263,88.2321 662.5,88C 668,87.8333 673.5,87.6667 679,87.5C 686.734,87.2859 694.234,87.9526 701.5,89.5 Z"/></g>
<g><path style="opacity:1" fill="#7c9ab9" d="M 546.5,90.5 C 531.166,89.1933 515.832,89.1933 500.5,90.5C 515.831,87.8579 531.165,87.8579 546.5,90.5 Z"/></g>
<g><path style="opacity:1" fill="#316192" d="M 701.5,89.5 C 722.16,92.3865 741.494,99.0532 759.5,109.5C 791.891,131.394 815.224,160.56 829.5,197C 827.19,197.497 824.857,197.663 822.5,197.5C 817.015,196.348 811.349,196.182 805.5,197C 801.867,197.149 798.534,197.982 795.5,199.5C 780.18,202.161 770.18,210.827 765.5,225.5C 764.4,227.277 763.566,229.277 763,231.5C 762.18,238.014 762.347,244.347 763.5,250.5C 764.805,255.739 765.639,261.072 766,266.5C 770,277.167 774,287.833 778,298.5C 789.078,320.324 800.412,341.991 812,363.5C 816.306,369.972 820.806,376.306 825.5,382.5C 814.574,386.752 807.574,394.418 804.5,405.5C 803.71,406.609 803.21,407.942 803,409.5C 802.501,414.489 802.334,419.489 802.5,424.5C 802.5,425.167 802.5,425.833 802.5,426.5C 800.595,436.622 799.262,446.955 798.5,457.5C 796.927,472.512 795.26,487.512 793.5,502.5C 791.196,513.985 789.196,525.652 787.5,537.5C 784.9,553.914 776.567,566.414 762.5,575C 755.005,578.084 747.338,580.584 739.5,582.5C 728.41,584.128 717.41,583.795 706.5,581.5C 698.956,578.127 693.123,572.793 689,565.5C 684.51,557.757 681.51,549.423 680,540.5C 678.669,528.535 677.669,516.535 677,504.5C 676.667,472.833 676.333,441.167 676,409.5C 671.646,391.972 660.479,383.306 642.5,383.5C 645.595,369.047 650.762,355.38 658,342.5C 672.835,302.338 673.169,262.004 659,221.5C 652.46,209.308 642.293,202.141 628.5,200C 608.46,199.074 589.794,203.574 572.5,213.5C 572.933,181.372 582.099,152.039 600,125.5C 614.773,105.194 634.606,93.1944 659.5,89.5C 673.491,88.2306 687.491,88.2306 701.5,89.5 Z"/></g>
<g><path style="opacity:1" fill="#316192" d="M 546.5,90.5 C 564.287,92.7511 581.62,96.7511 598.5,102.5C 575.655,128.873 561.989,159.54 557.5,194.5C 556.203,199.62 555.369,204.954 555,210.5C 554.174,221.674 554.341,232.674 555.5,243.5C 555.605,260.511 555.272,277.511 554.5,294.5C 553.031,301.443 552.364,308.609 552.5,316C 552.501,320.68 552.834,325.18 553.5,329.5C 557.028,348.893 566.028,365.226 580.5,378.5C 564.275,395.889 548.608,413.722 533.5,432C 530.328,433.752 527.328,435.752 524.5,438C 518.369,439.266 512.702,438.266 507.5,435C 499.688,428.181 493.188,420.348 488,411.5C 472.561,381.874 460.228,350.874 451,318.5C 441.734,284.897 434.4,250.897 429,216.5C 425.19,189.841 427.523,163.841 436,138.5C 448.794,110.881 470.294,94.8813 500.5,90.5C 515.832,89.1933 531.166,89.1933 546.5,90.5 Z"/></g>
<g><path style="opacity:0.562" fill="#1c242d" d="M 450.5,93.5 C 447.192,96.4715 443.859,99.4715 440.5,102.5C 439.833,102.5 439.5,102.833 439.5,103.5C 438.833,103.5 438.5,103.833 438.5,104.5C 437.833,104.5 437.5,104.833 437.5,105.5C 434.826,109.172 432.16,112.839 429.5,116.5C 429.822,112.513 431.656,109.513 435,107.5C 435.333,106.5 435.667,105.5 436,104.5C 439.719,101.903 442.886,98.7365 445.5,95C 447.154,94.3923 448.821,93.8923 450.5,93.5 Z"/></g>
<g><path style="opacity:0.984" fill="#98999a" d="M 415.5,154.5 C 415.324,157.727 414.657,160.727 413.5,163.5C 413.215,160.171 413.882,157.171 415.5,154.5 Z"/></g>
<g><path style="opacity:0.992" fill="#a4a4a4" d="M 413.5,164.5 C 412.641,179.816 412.308,195.149 412.5,210.5C 411.834,204.175 411.5,197.675 411.5,191C 411.284,181.943 411.951,173.11 413.5,164.5 Z"/></g>
<g><path style="opacity:1" fill="#8fa8c3" d="M 907.5,152.5 C 908.655,159.321 908.821,166.321 908,173.5C 907.877,179.414 907.044,185.081 905.5,190.5C 906.83,177.873 907.497,165.206 907.5,152.5 Z"/></g>
<g><path style="opacity:0.992" fill="#a6b9ce" d="M 822.5,197.5 C 813.434,197.371 804.434,198.038 795.5,199.5C 798.534,197.982 801.867,197.149 805.5,197C 811.349,196.182 817.015,196.348 822.5,197.5 Z"/></g>
<g><path style="opacity:0.988" fill="#b4c3d5" d="M 557.5,194.5 C 555.889,210.787 555.222,227.12 555.5,243.5C 554.341,232.674 554.174,221.674 555,210.5C 555.369,204.954 556.203,199.62 557.5,194.5 Z"/></g>
<g><path style="opacity:1" fill="#336293" d="M 829.5,235.5 C 828.168,239.264 827.335,243.264 827,247.5C 826.174,258.674 826.341,269.674 827.5,280.5C 827.591,289.564 828.424,298.564 830,307.5C 832.253,322.861 830.086,337.527 823.5,351.5C 811.827,330.156 800.66,308.489 790,286.5C 787.201,277.769 784.201,269.103 781,260.5C 780.172,256.534 779.672,252.534 779.5,248.5C 779.347,242.131 779.68,235.797 780.5,229.5C 782.193,225.628 784.526,222.128 787.5,219C 791.281,216.775 795.281,215.109 799.5,214C 810.161,213.5 820.828,213.333 831.5,213.5C 831.053,220.856 830.386,228.189 829.5,235.5 Z"/></g>
<g><path style="opacity:1" fill="#89a4c0" d="M 628.5,216.5 C 621.132,216.317 613.799,216.65 606.5,217.5C 607.263,216.732 608.263,216.232 609.5,216C 616.014,215.18 622.347,215.347 628.5,216.5 Z"/></g>
<g><path style="opacity:1" fill="#326192" d="M 628.5,216.5 C 636.502,218.324 642.335,222.99 646,230.5C 652.994,255.767 654.994,281.434 652,307.5C 649.022,323.108 643.689,337.774 636,351.5C 632.721,360.396 629.721,369.396 627,378.5C 612.12,379.651 599.287,374.985 588.5,364.5C 577.465,353.428 570.965,340.095 569,324.5C 569.425,304.834 570.258,285.167 571.5,265.5C 570.999,254.828 570.833,244.161 571,233.5C 581.545,225.311 593.378,219.978 606.5,217.5C 613.799,216.65 621.132,216.317 628.5,216.5 Z"/></g>
<g><path style="opacity:1" fill="#f8f9fa" d="M 800.5,220.5 C 805.297,220.121 809.964,220.621 814.5,222C 816.984,224.284 817.151,226.784 815,229.5C 807.27,238.276 799.27,238.61 791,230.5C 790.333,228.833 790.333,227.167 791,225.5C 793.907,223.132 797.074,221.465 800.5,220.5 Z"/></g>
<g><path style="opacity:1" fill="#f7f9fa" d="M 631.5,242.5 C 627.466,242.495 623.466,242.162 619.5,241.5C 615.263,239.192 612.597,235.692 611.5,231C 611.354,228.966 612.02,227.299 613.5,226C 622.994,223.119 631.661,224.619 639.5,230.5C 640.687,232.975 640.353,235.309 638.5,237.5C 636.71,239.961 634.377,241.627 631.5,242.5 Z"/></g>
<g><path style="opacity:1" fill="#9bb2ca" d="M 765.5,225.5 C 763.765,233.715 763.098,242.048 763.5,250.5C 762.347,244.347 762.18,238.014 763,231.5C 763.566,229.277 764.4,227.277 765.5,225.5 Z"/></g>
<g><path style="opacity:1" fill="#7b99b9" d="M 780.5,229.5 C 779.68,235.797 779.347,242.131 779.5,248.5C 778.836,246.022 778.503,243.355 778.5,240.5C 778.294,236.531 778.961,232.865 780.5,229.5 Z"/></g>
<g><path style="opacity:1" fill="#a9bcd1" d="M 619.5,241.5 C 623.466,242.162 627.466,242.495 631.5,242.5C 630.036,243.16 628.369,243.493 626.5,243.5C 623.795,243.684 621.462,243.017 619.5,241.5 Z"/></g>
<g><path style="opacity:0.996" fill="#c7d2df" d="M 829.5,235.5 C 827.87,250.446 827.203,265.446 827.5,280.5C 826.341,269.674 826.174,258.674 827,247.5C 827.335,243.264 828.168,239.264 829.5,235.5 Z"/></g>
<g><path style="opacity:0.996" fill="#ced8e3" d="M 843.5,190.5 C 844.933,193.282 846.1,196.282 847,199.5C 848.275,216.882 846.775,233.882 842.5,250.5C 844.129,237.709 845.462,224.876 846.5,212C 846.701,204.646 845.701,197.479 843.5,190.5 Z"/></g>
<g><path style="opacity:0.996" fill="#737373" d="M 420.5,260.5 C 421.768,262.905 422.435,265.572 422.5,268.5C 420.96,266.162 420.294,263.495 420.5,260.5 Z"/></g>
<g><path style="opacity:0.996" fill="#6a6a6a" d="M 422.5,270.5 C 423.924,272.515 424.59,274.848 424.5,277.5C 422.837,275.562 422.171,273.228 422.5,270.5 Z"/></g>
<g><path style="opacity:0.996" fill="#beccdb" d="M 842.5,277.5 C 844.221,286.281 845.221,295.281 845.5,304.5C 843.548,295.743 842.548,286.743 842.5,277.5 Z"/></g>
<g><path style="opacity:1" fill="#abbed2" d="M 845.5,305.5 C 846.657,314.324 846.824,323.324 846,332.5C 845.79,334.058 845.29,335.391 844.5,336.5C 845.339,326.19 845.672,315.857 845.5,305.5 Z"/></g>
<g><path style="opacity:1" fill="#aec0d3" d="M 554.5,294.5 C 553.731,306.15 553.398,317.817 553.5,329.5C 552.834,325.18 552.501,320.68 552.5,316C 552.364,308.609 553.031,301.443 554.5,294.5 Z"/></g>
<g><path style="opacity:1" fill="#585858" d="M 445.5,353.5 C 447.02,355.89 448.02,358.557 448.5,361.5C 446.415,359.316 445.415,356.649 445.5,353.5 Z"/></g>
<g><path style="opacity:0.992" fill="#7a7a7a" d="M 917.5,385.5 C 911.804,385.447 906.138,385.78 900.5,386.5C 903.718,385.046 907.218,384.379 911,384.5C 913.361,384.504 915.527,384.837 917.5,385.5 Z"/></g>
<g><path style="opacity:0.996" fill="#737373" d="M 850.5,387.5 C 853.428,387.565 856.095,388.232 858.5,389.5C 855.505,389.706 852.838,389.04 850.5,387.5 Z"/></g>
<g><path style="opacity:0.992" fill="#919191" d="M 892.5,387.5 C 888.46,389.117 884.127,389.95 879.5,390C 872.654,390.821 865.987,390.654 859.5,389.5C 870.558,389.672 881.558,389.006 892.5,387.5 Z"/></g>
<g><path style="opacity:1" fill="#376494" d="M 833.5,397.5 C 838.478,399.654 843.478,401.821 848.5,404C 859.464,405.452 870.464,405.785 881.5,405C 888.784,403.505 896.117,402.839 903.5,403C 889.375,414.89 873.042,421.557 854.5,423C 844.5,423.667 834.5,423.667 824.5,423C 822.324,422.837 820.491,422.004 819,420.5C 816.861,408.058 821.695,400.391 833.5,397.5 Z"/></g>
<g><path style="opacity:1" fill="#376494" d="M 644.5,399.5 C 654.124,400.255 659.457,405.421 660.5,415C 659.904,419.36 658.071,423.194 655,426.5C 632.708,448.269 607.208,452.603 578.5,439.5C 590.291,435.438 602.291,431.938 614.5,429C 617.328,426.752 620.328,424.752 623.5,423C 630.023,414.649 637.023,406.815 644.5,399.5 Z"/></g>
<g><path style="opacity:1" fill="#a1b6cc" d="M 804.5,405.5 C 804.064,412 803.398,418.334 802.5,424.5C 802.334,419.489 802.501,414.489 803,409.5C 803.21,407.942 803.71,406.609 804.5,405.5 Z"/></g>
<g><path style="opacity:1" fill="#91aac4" d="M 802.5,426.5 C 802.081,437.088 800.748,447.421 798.5,457.5C 799.262,446.955 800.595,436.622 802.5,426.5 Z"/></g>
<g><path style="opacity:0.996" fill="#777777" d="M 817.5,439.5 C 822.213,438.503 826.88,438.837 831.5,440.5C 826.819,440.331 822.152,439.998 817.5,439.5 Z"/></g>
<g><path style="opacity:0.996" fill="#565656" d="M 658.5,446.5 C 658.5,445.833 658.833,445.5 659.5,445.5C 660.494,455.987 660.828,466.654 660.5,477.5C 659.833,467.167 659.167,456.833 658.5,446.5 Z"/></g>
<g><path style="opacity:0.576" fill="#15171a" d="M 916.5,436.5 C 907.254,444.381 896.754,449.048 885,450.5C 866.478,455.458 847.645,456.792 828.5,454.5C 826.695,477.792 823.695,500.792 819.5,523.5C 821.92,499.804 824.587,476.137 827.5,452.5C 859.087,456.96 888.754,451.626 916.5,436.5 Z"/></g>
<g><path style="opacity:0.992" fill="#7c7c7c" d="M 584.5,459.5 C 587.228,459.171 589.562,459.837 591.5,461.5C 588.848,461.59 586.515,460.924 584.5,459.5 Z"/></g>
<g><path style="opacity:0.992" fill="#c2c6ca" d="M 659.5,445.5 C 659.56,444.957 659.893,444.624 660.5,444.5C 661.5,464.155 661.833,483.822 661.5,503.5C 660.507,495.016 660.174,486.349 660.5,477.5C 660.828,466.654 660.494,455.987 659.5,445.5 Z"/></g>
<g><path style="opacity:0.554" fill="#15181b" d="M 652.5,561.5 C 649.62,549.463 647.787,537.129 647,524.5C 645.945,505.837 644.945,487.17 644,468.5C 630.397,475.886 615.897,478.386 600.5,476C 589.187,474.066 578.187,472.066 567.5,470C 559.093,467.632 551.759,463.466 545.5,457.5C 544.389,459.552 542.723,460.886 540.5,461.5C 541.713,458.775 543.546,456.441 546,454.5C 547.793,457.295 549.96,459.795 552.5,462C 577.177,472.938 602.844,476.605 629.5,473C 635.198,470.813 640.865,468.647 646.5,466.5C 646.557,498.296 648.557,529.963 652.5,561.5 Z"/></g>
<g><path style="opacity:0.996" fill="#676767" d="M 814.5,464.5 C 814.802,468.79 814.136,472.79 812.5,476.5C 812.717,472.295 813.383,468.295 814.5,464.5 Z"/></g>
<g><path style="opacity:0.988" fill="#aabcd0" d="M 793.5,502.5 C 792.663,511.863 791.496,521.196 790,530.5C 789.844,533.191 789.011,535.524 787.5,537.5C 789.196,525.652 791.196,513.985 793.5,502.5 Z"/></g>
<g><path style="opacity:0.984" fill="#858585" d="M 801.5,548.5 C 801.267,551.542 800.267,554.208 798.5,556.5C 798.733,553.458 799.733,550.792 801.5,548.5 Z"/></g>
<g><path style="opacity:1" fill="#7d9aba" d="M 706.5,581.5 C 717.41,583.795 728.41,584.128 739.5,582.5C 734.42,584.015 729.086,584.682 723.5,584.5C 719.833,584.333 716.167,584.167 712.5,584C 710.277,583.434 708.277,582.6 706.5,581.5 Z"/></g>
<g><path style="opacity:0.575" fill="#16181b" d="M 794.5,589.5 C 789.297,594.189 783.63,598.356 777.5,602C 762.912,608.505 748.079,613.005 733,615.5C 722.665,615.847 712.165,615.347 701.5,614C 692.337,611.749 684.004,607.915 676.5,602.5C 698.607,614.232 721.607,617.065 745.5,611C 762.778,608.029 778.111,601.029 791.5,590C 792.448,589.517 793.448,589.351 794.5,589.5 Z"/></g>
<g><path style="opacity:0.98" fill="#305d8c" d="M 929.5,686.5 C 974.119,685.118 997.785,706.618 1000.5,751C 1000.08,763.425 997.249,775.259 992,786.5C 989.084,791.17 985.584,795.336 981.5,799C 987.342,804.011 993.009,809.177 998.5,814.5C 995.805,817.526 993.138,820.526 990.5,823.5C 983.564,818.734 977.064,813.4 971,807.5C 964.152,811.759 956.652,814.259 948.5,815C 923.216,818.575 902.05,811.075 885,792.5C 870.167,767.4 868.834,741.733 881,715.5C 892.334,697.75 908.5,688.083 929.5,686.5 Z M 924.5,698.5 C 951.79,693.892 971.29,703.892 983,728.5C 986.503,742.788 986.836,756.788 984,770.5C 978.779,786.388 968.279,796.888 952.5,802C 933.983,807.154 916.817,803.321 901,790.5C 893.731,782.961 889.398,773.961 888,763.5C 886.411,749.825 887.744,736.492 892,723.5C 899.795,710.458 910.629,702.125 924.5,698.5 Z"/></g>
<g><path style="opacity:0.981" fill="#305e8c" d="M 819.5,686.5 C 832.787,686.188 845.12,689.354 856.5,696C 865.078,703.885 869.078,713.719 868.5,725.5C 863.833,725.5 859.167,725.5 854.5,725.5C 853.926,711.09 846.592,702.256 832.5,699C 821.366,697.885 810.366,698.551 799.5,701C 788,708.852 785.5,719.019 792,731.5C 793.938,734.106 796.438,735.939 799.5,737C 814.751,740.979 830.084,744.646 845.5,748C 862.868,751.08 871.868,761.413 872.5,779C 872.255,794.169 865.255,804.835 851.5,811C 833.087,816.588 814.754,816.922 796.5,812C 790.101,809.049 784.268,805.216 779,800.5C 771.805,791.129 769.805,781.129 773,770.5C 775.667,770.5 778.333,770.5 781,770.5C 782.067,771.191 783.234,771.691 784.5,772C 785.076,787.562 792.743,797.562 807.5,802C 820.687,804.485 833.687,803.818 846.5,800C 853.037,797.426 856.537,792.593 857,785.5C 859.765,772.094 854.599,763.594 841.5,760C 822.709,757.052 804.376,752.386 786.5,746C 781.211,742.936 777.711,738.436 776,732.5C 769.897,710.193 777.73,695.693 799.5,689C 806.319,688.188 812.985,687.354 819.5,686.5 Z"/></g>
<g><path style="opacity:0.984" fill="#315f8e" d="M 1007.5,689.5 C 1011.5,689.5 1015.5,689.5 1019.5,689.5C 1019.5,726.5 1019.5,763.5 1019.5,800.5C 1044.83,800.5 1070.17,800.5 1095.5,800.5C 1095.5,804.5 1095.5,808.5 1095.5,812.5C 1065.93,812.829 1036.43,812.495 1007,811.5C 1006.18,770.792 1006.34,730.125 1007.5,689.5 Z"/></g>
<g><path style="opacity:1" fill="#18191a" d="M 353.5,703.5 C 377.857,704.731 388.023,717.731 384,742.5C 381.437,754.061 374.271,760.894 362.5,763C 347.837,763.5 333.17,763.667 318.5,763.5C 318.5,777.833 318.5,792.167 318.5,806.5C 314.384,807.011 310.717,807.011 307.5,806.5C 306.5,772.507 306.167,738.507 306.5,704.5C 322.342,704.83 338.009,704.496 353.5,703.5 Z M 350.5,714.5 C 364.966,713.109 372.632,719.942 373.5,735C 372.811,739.733 371.311,744.233 369,748.5C 363.269,752.351 356.935,754.351 350,754.5C 340.509,753.272 331.009,753.272 321.5,754.5C 320.791,753.596 319.791,753.263 318.5,753.5C 318.5,740.5 318.5,727.5 318.5,714.5C 329.592,714.655 340.259,714.655 350.5,714.5 Z"/></g>
<g><path style="opacity:0.055" fill="#223446" d="M 350.5,714.5 C 340.259,714.655 329.592,714.655 318.5,714.5C 318.5,727.5 318.5,740.5 318.5,753.5C 319.791,753.263 320.791,753.596 321.5,754.5C 320.167,754.5 318.833,754.5 317.5,754.5C 317.5,740.833 317.5,727.167 317.5,713.5C 328.679,713.172 339.679,713.505 350.5,714.5 Z"/></g>
<g><path style="opacity:1" fill="#181819" d="M 545.5,716.5 C 548.143,716.878 550.809,717.211 553.5,717.5C 554.331,724.476 554.831,731.476 555,738.5C 558.753,739.006 563.253,739.173 568.5,739C 569.444,741.719 569.777,744.552 569.5,747.5C 564.5,747.5 559.5,747.5 554.5,747.5C 554.333,762.504 554.5,777.504 555,792.5C 555.295,794.931 556.462,796.764 558.5,798C 562.152,798.499 565.818,798.665 569.5,798.5C 569.813,801.247 569.48,803.914 568.5,806.5C 562.557,807.506 556.891,807.339 551.5,806C 549,804.833 547.167,803 546,800.5C 544.99,793.98 544.157,787.48 543.5,781C 544.469,769.745 544.803,758.578 544.5,747.5C 540.833,747.5 537.167,747.5 533.5,747.5C 532.413,738.953 535.913,736.286 544,739.5C 544.806,733.916 544.639,728.416 543.5,723C 544.23,720.846 544.897,718.679 545.5,716.5 Z"/></g>
<g><path style="opacity:1" fill="#18191b" d="M 417.5,736.5 C 448.885,736.726 462.052,752.393 457,783.5C 453.912,797.923 445.078,806.09 430.5,808C 403.151,811.967 388.151,800.3 385.5,773C 386.544,752.136 397.211,739.969 417.5,736.5 Z M 412.5,746.5 C 418.994,746.476 425.66,746.643 432.5,747C 443.244,751.971 448.244,760.471 447.5,772.5C 448.369,789.773 440.202,799.106 423,800.5C 408.876,800.745 400.21,793.745 397,779.5C 394.253,764.498 399.419,753.498 412.5,746.5 Z"/></g>
<g><path style="opacity:1" fill="#18191b" d="M 489.5,736.5 C 499.693,735.754 509.36,737.587 518.5,742C 523.883,746.98 526.217,753.146 525.5,760.5C 522.269,761.368 518.935,761.368 515.5,760.5C 515.49,754.299 512.824,749.799 507.5,747C 498.375,744.765 489.375,745.098 480.5,748C 476.673,751.308 475.506,755.474 477,760.5C 478.952,762.894 481.452,764.394 484.5,765C 494.167,766.667 503.833,768.333 513.5,770C 525.696,773.226 530.529,781.059 528,793.5C 525.296,800.873 520.13,805.373 512.5,807C 501.776,809.128 491.11,808.961 480.5,806.5C 474.335,805.627 469.502,802.294 466,796.5C 465.073,792.987 464.239,789.487 463.5,786C 467.016,784.252 470.683,784.085 474.5,785.5C 475.188,788.783 476.188,791.949 477.5,795C 481.609,797.814 486.109,799.647 491,800.5C 497.254,800.362 503.421,799.862 509.5,799C 518.136,794.992 519.802,788.992 514.5,781C 504.771,778.454 494.937,776.287 485,774.5C 480.142,774.062 475.308,772.562 470.5,770C 464.409,762.24 463.909,754.074 469,745.5C 470.873,743.291 473.04,741.458 475.5,740C 480.224,738.506 484.891,737.339 489.5,736.5 Z"/></g>
<g><path style="opacity:1" fill="#191a1b" d="M 598.5,736.5 C 607.398,735.846 615.731,737.679 623.5,742C 625.452,744.074 627.285,746.241 629,748.5C 629.212,745.242 629.712,742.076 630.5,739C 633.993,737.996 637.159,738.496 640,740.5C 640.667,761.5 640.667,782.5 640,803.5C 639.691,821.138 630.858,831.305 613.5,834C 602.482,835.392 591.815,834.058 581.5,830C 575.769,826.052 572.436,820.552 571.5,813.5C 571.868,812.09 572.701,811.09 574,810.5C 576.369,810.727 578.869,810.893 581.5,811C 583.543,820.373 589.376,825.54 599,826.5C 621.71,828.767 631.71,818.434 629,795.5C 618.899,804.652 607.066,807.819 593.5,805C 576.68,800.327 568.347,789.16 568.5,771.5C 568.565,751.114 578.565,739.447 598.5,736.5 Z M 603.5,745.5 C 616.842,744.679 625.342,750.679 629,763.5C 632.59,779.156 627.09,789.989 612.5,796C 588.165,799.33 577.331,788.83 580,764.5C 582.966,752.025 590.799,745.692 603.5,745.5 Z"/></g>
<g><path style="opacity:1" fill="#181919" d="M 679.5,736.5 C 682.777,736.216 685.943,736.549 689,737.5C 689.498,740.817 689.665,744.15 689.5,747.5C 673.898,743.875 664.732,749.875 662,765.5C 661.5,779.163 661.333,792.829 661.5,806.5C 658.167,806.5 654.833,806.5 651.5,806.5C 651.333,784.164 651.5,761.831 652,739.5C 654.534,738.48 657.367,738.48 660.5,739.5C 661.318,742.107 661.818,744.774 662,747.5C 665.575,740.134 671.409,736.468 679.5,736.5 Z"/></g>
<g><path style="opacity:1" fill="#18191a" d="M 724.5,736.5 C 742.471,736.644 753.971,745.311 759,762.5C 759.499,766.821 759.666,771.154 759.5,775.5C 739.5,775.5 719.5,775.5 699.5,775.5C 699.656,789.825 706.823,798.159 721,800.5C 730.243,801.302 738.243,798.302 745,791.5C 746.312,789.045 747.478,786.545 748.5,784C 751.817,783.502 755.15,783.335 758.5,783.5C 756,797.5 747.666,805.666 733.5,808C 709.873,812.04 694.873,802.706 688.5,780C 687.475,770.685 688.975,761.519 693,752.5C 700.774,741.697 711.274,736.363 724.5,736.5 Z M 748.5,762.5 C 748.5,764.167 748.5,765.833 748.5,767.5C 731.991,767.83 715.658,767.496 699.5,766.5C 702.008,752.664 710.342,745.664 724.5,745.5C 736.376,745.712 744.376,751.378 748.5,762.5 Z"/></g>
<g><path style="opacity:0.055" fill="#23374a" d="M 748.5,762.5 C 749.461,764.265 749.795,766.265 749.5,768.5C 732.487,768.833 715.487,768.499 698.5,767.5C 698.624,766.893 698.957,766.56 699.5,766.5C 715.658,767.496 731.991,767.83 748.5,767.5C 748.5,765.833 748.5,764.167 748.5,762.5 Z"/></g>
</svg>
