<svg width="42" height="40" viewBox="0 0 42 40" fill="none" xmlns="http://www.w3.org/2000/svg">
<path d="M20.1155 20.451L18.2993 18.6341M18.825 21.7416L17.0087 19.9246M17.5337 23.0321L15.7175 21.2159M32.7764 35.6938L24.1973 27.114M3.05659 5.97306L11.6356 14.5522M14.1523 24.5973C12.0725 22.5182 12.0725 19.1479 14.1523 17.0688C16.2313 14.989 19.6016 14.989 21.6807 17.0688C23.7605 19.1479 23.7605 22.5182 21.6807 24.5973C19.6016 26.6771 16.2313 26.6771 14.1523 24.5973ZM22.1738 24.1049L24.0411 25.0734L26.135 23.5785C26.5126 23.3083 27.0353 23.2216 27.3329 23.5785L34.7643 32.5086C35.062 32.8662 35.0938 33.3764 34.7643 33.7066L30.7891 37.6811C30.4597 38.0106 29.9495 37.9795 29.5911 37.6811L20.6619 30.2496C20.3035 29.9512 20.3916 29.43 20.6619 29.0516L22.1568 26.9577L21.1883 25.0912L22.1738 24.1049ZM14.6446 16.5757L13.6769 14.7091L15.1711 12.6145C15.4413 12.2369 15.5287 11.7149 15.1711 11.4165L6.2418 3.98506C5.88419 3.68741 5.37332 3.65632 5.0431 3.98506L1.0686 7.96031C0.739121 8.28979 0.770218 8.79994 1.0686 9.1583L8.50003 18.0884C8.79842 18.446 9.3204 18.3579 9.698 18.0884L11.7926 16.5935L13.6584 17.5619L14.6446 16.5757Z" stroke="white" stroke-miterlimit="22.9256"/>
</svg>
